<?xml version="1.0" encoding="UTF-8" standalone="no"?>
<svg width="633px" height="528px" viewBox="0 0 633 528" version="1.1" xmlns="http://www.w3.org/2000/svg" xmlns:xlink="http://www.w3.org/1999/xlink">
    <defs>
        <linearGradient x1="13.1396851%" y1="88.7766325%" x2="64.6323056%" y2="23.191084%" id="linearGradient-1">
            <stop stop-color="#07EF9C" offset="0%"></stop>
            <stop stop-color="#174FEE" offset="100%"></stop>
        </linearGradient>
        <polyline id="path-2" points="263.681746 676.953381 224.102203 453.312929 279.915689 222.66588 278.608859 194.396484 301.839415 139.303144 281.400718 85.7093566 317.389006 0.0600893319 341.325087 42.4769601 628.629062 550.550661 252.599595 748.781109 263.681746 680.079138"></polyline>
        <mask id="mask-3" maskContentUnits="userSpaceOnUse" maskUnits="objectBoundingBox" x="0" y="0" width="404.526859" height="748.72102" fill="white">
            <use xlink:href="#path-2"></use>
        </mask>
        <linearGradient x1="105.490485%" y1="43.1341201%" x2="24.5282544%" y2="43.1341201%" id="linearGradient-4">
            <stop stop-color="#00CFD9" offset="0%"></stop>
            <stop stop-color="#24EFA6" offset="100%"></stop>
        </linearGradient>
        <path d="M63.2865804,55.5835641 C98.2387936,55.5835641 126.573161,48.1240445 126.573161,38.9222609 C126.573161,34.0979842 118.785018,29.752596 106.338203,26.7099842 C95.044071,23.9491445 79.9141782,22.2609576 63.2865804,22.2609576 C28.3343672,22.2609576 0,29.7204772 0,38.9222609 C0,48.1240445 28.3343672,55.5835641 63.2865804,55.5835641 Z" id="path-5"></path>
        <mask id="mask-6" maskContentUnits="userSpaceOnUse" maskUnits="objectBoundingBox" x="0" y="0" width="126.573161" height="33.3226064" fill="white">
            <use xlink:href="#path-5"></use>
        </mask>
    </defs>
    <g id="Manifesto" stroke="none" stroke-width="1" fill="none" fill-rule="evenodd">
        <g id="Manifesto---Tablet-Portrait" transform="translate(-66.000000, -4415.000000)">
            <g id="Group-11" transform="translate(20.000000, 4415.000000)">
                <polyline id="Path-4-Copy" fill="url(#linearGradient-1)" opacity="0.1" transform="translate(421.170050, 377.301416) scale(-1, 1) rotate(-241.000000) translate(-421.170050, -377.301416) " points="258.486163 675.032147 218.906621 454.941501 274.720107 227.955473 273.413276 200.134792 296.643833 145.91594 276.205136 93.1728371 312.193424 8.88306602 336.129504 50.6266611 623.43348 550.635796 247.404013 745.719765 258.486163 678.108289"></polyline>
                <use id="Path-4-Copy" stroke="#09DEB9" mask="url(#mask-3)" stroke-width="16" stroke-dasharray="2,2,2,2" transform="translate(426.365633, 374.420599) scale(-1, 1) rotate(-241.000000) translate(-426.365633, -374.420599) " xlink:href="#path-2"></use>
                <g id="Group-2" transform="translate(309.420406, 281.608515)">
                    <polygon id="Rectangle-Copy-2" fill="url(#linearGradient-1)" opacity="0.1" points="190.450185 142.008401 247.753968 185.215059 367.927934 185.215059 179.373536 241.036931 179.373536 185.215059"></polygon>
                    <rect id="Rectangle-Copy" stroke="#2C53F0" stroke-width="2" stroke-linecap="square" fill="#FFFFFF" x="72.5024754" y="1.05530972" width="175.341401" height="180.99455"></rect>
                    <rect id="Rectangle" stroke="#2C53F0" stroke-width="2" stroke-linecap="square" fill="#FFFFFF" x="0.777684278" y="62.2632733" width="175.341401" height="180.99455"></rect>
                    <polygon id="Path-6" stroke="#2C53F0" stroke-width="2" stroke-linecap="square" fill="#FFFFFF" points="1.83246062 61.9794594 174.934453 61.9794594 247.58613 1.05530972 71.779763 1.05530972"></polygon>
                    <polygon id="Path-6" fill="url(#linearGradient-4)" opacity="0.481751399" points="1.83246062 61.9794594 174.934453 61.9794594 247.58613 1.05530972 71.779763 1.05530972"></polygon>
                    <polygon id="Path-7" stroke="#2C53F0" stroke-width="2" stroke-linecap="square" fill="#FFFFFF" points="175.870557 61.5169795 175.870557 244.170753 248.058135 182.169149 249.230624 2.34154703"></polygon>
                    <polygon id="Path-7" fill="url(#linearGradient-4)" opacity="0.481751399" points="247.583896 2.26298354 175.870557 61.5169795 175.870557 244.170753 248.058135 182.169149 249.695332 0.518384307"></polygon>
                    <path d="" id="Path-8" stroke="#979797"></path>
                    <g id="Group-4" transform="translate(23.982764, 106.586281)">
                        <ellipse id="Oval-Copy-2" stroke="#10E3A5" stroke-width="2" stroke-linecap="square" cx="62.4905227" cy="44.0542067" rx="44.1811976" ry="44.0103964"></ellipse>
                        <use id="Oval-Copy-4" stroke="#09DEB9" mask="url(#mask-6)" stroke-width="4" stroke-dasharray="2,2,2,2" xlink:href="#path-5"></use>
                        <ellipse id="Oval-Copy-5" fill="#FFFFFF" cx="62.2915083" cy="28.2114231" rx="40.7979527" ry="9.124047"></ellipse>
                        <ellipse id="Oval-Copy-9" fill="url(#linearGradient-1)" opacity="0.1" cx="71.2471565" cy="51.368227" rx="42.1910536" ry="42.0499558"></ellipse>
                    </g>
                </g>
                <g id="Group-25-Copy" transform="translate(252.846671, 285.986845) scale(-1, 1) translate(-252.846671, -285.986845) translate(180.846671, 205.986845)" stroke-linecap="square">
                    <path d="M140.633998,155.741002 L140.633998,0.99817781" id="Line-Copy-15" stroke="#D5D5D5"></path>
                    <path d="M61.5257722,156.796312 L61.5257721,136.753662" id="Line-Copy-17" stroke="#D5D5D5"></path>
                    <rect id="Rectangle-174-Copy-7" stroke="#2C53F0" stroke-width="2" fill="#2C53F0" x="138.218955" y="1.76553821" width="4.83008525" height="4.82149605"></rect>
                    <rect id="Rectangle-174-Copy-8" stroke="#2C53F0" stroke-width="2" x="59.1107296" y="130.966789" width="4.83008525" height="4.82149605"></rect>
                    <g id="Group-7" transform="translate(70.908808, 157.239944) rotate(-270.000000) translate(-70.908808, -157.239944) translate(68.908808, 86.739944)">
                        <path d="M0.449874762,140.925901 L0.449874762,1.55572031" id="Line-Copy-13" stroke="#757575" opacity="0.3" transform="translate(0.977263, 71.240810) rotate(-180.000000) translate(-0.977263, -71.240810) "></path>
                        <polyline id="Rectangle-147-Copy-9" stroke="#2C53F0" stroke-width="2" fill="#2C53F0" transform="translate(2.516993, 0.745755) rotate(-180.000000) translate(-2.516993, -0.745755) " points="1.5046511 -9.32587341e-15 3.52933477 -8.96016144e-15 3.52933477 1.49151084 1.5046511 1.49151084 1.5046511 -9.32587341e-15"></polyline>
                    </g>
                </g>
                <g id="Group-8" transform="translate(416.104914, 194.683096) rotate(-270.000000) translate(-416.104914, -194.683096) translate(338.104914, 129.683096)" stroke="#10E3A5" stroke-linecap="square">
                    <path d="M112.891965,70.3937236 L112.891965,-9.39917777" id="Line-Copy-13" stroke-width="2" transform="translate(112.891965, 30.497273) rotate(-270.000000) translate(-112.891965, -30.497273) "></path>
                    <path d="M112.891965,61.9512459 L112.891965,-17.8416555" id="Line-Copy-14" stroke-width="2" transform="translate(112.891965, 22.054795) rotate(-270.000000) translate(-112.891965, -22.054795) "></path>
                    <path d="M63.1748524,122.463184 L12.6573161,122.463184" id="Line-Copy-14" stroke-width="2"></path>
                    <polyline id="Rectangle-174-Copy-4" stroke-width="4" points="69.6152384 2.39524125 69.6152384 0.0472573205 71.9550965 0.0472573205 71.9550965 2.39524125 69.6152384 2.39524125"></polyline>
                    <path d="M70.6700147,0.0472573205 L72.3513259,123.322253" id="Line-Copy-16" stroke-width="2"></path>
                    <ellipse id="Oval-139" stroke-width="2" fill="#FFFFFF" cx="71.8498253" cy="120.475512" rx="6.45369231" ry="6.45480535"></ellipse>
                    <ellipse id="Oval-139-Copy" stroke-width="2" fill="#FFFFFF" cx="5.86699301" cy="124.10995" rx="5.86699301" ry="5.86800487"></ellipse>
                </g>
                <g id="Group-14" transform="translate(313.392394, 0.301644)">
                    <path d="M27.4069288,10.0068078 L19.5190284,10.0068078 C11.8154589,10.0068078 5.56872004,16.262936 5.56872004,23.9801994 L5.56872004,31.8500931 L5.56872004,81.0090608 L5.56872004,88.8875293 C5.56872004,96.6013628 11.8120351,102.855776 19.5138927,102.855776 L76.4501186,102.855776 C84.1502643,102.855776 90.3935793,96.6013628 90.3935793,88.8875293 L90.3935793,81.0193505 C90.3935793,81.0190492 90.3935926,80.5785941 90.3936167,79.7753226 L41.3521014,79.7753206 C33.6502438,79.7753206 27.4069288,73.5209073 27.4069288,65.8070739 L27.4069288,57.9286054 L27.4069288,10.0068078 Z" id="Combined-Shape" fill="url(#linearGradient-1)" opacity="0.100000001" transform="translate(47.981168, 56.431292) scale(-1, 1) translate(-47.981168, -56.431292) "></path>
                    <path d="M3.84652553,13.9733916 C3.84652553,8.09969666 8.61760289,3.3201382 14.4808752,3.3201382 L71.4068297,3.3201382 C77.270102,3.3201382 82.0411794,8.09969666 82.0411794,13.9733916 L82.0411794,71.002253 C82.0411794,76.8759479 77.270102,81.6537914 71.4068297,81.6537914 L14.4808752,81.6537914 C8.61760289,81.6537914 3.84652553,76.8759479 3.84652553,71.002253 L3.84652553,13.9733916 Z M85.3571381,13.9733916 C85.3571381,6.25612818 79.1103992,0 71.4068297,0 L14.4808752,0 C6.77730574,0 0.530566857,6.25612818 0.530566857,13.9733916 L0.530566857,21.8432853 L0.530566857,71.002253 L0.530566857,78.8807214 C0.530566857,86.5945549 6.77388193,92.8489682 14.4757395,92.8489682 L71.4119654,92.8489682 C79.1121111,92.8489682 85.3554262,86.5945549 85.3554262,78.8807214 L85.3554262,71.0125427 C85.3554262,71.0091128 85.3571381,71.0056829 85.3571381,71.002253 L85.3571381,13.9733916 Z" id="Fill-1-Copy-10" fill="#11EB9D" transform="translate(42.943852, 46.424484) scale(-1, 1) translate(-42.943852, -46.424484) "></path>
                </g>
                <path d="M351.886598,57.510512 C351.0313,58.3635682 349.646637,58.3635682 348.793526,57.510512 L337.965588,46.7109527 C337.11029,45.8600783 337.11029,44.4790437 337.965588,43.6259876 C338.820886,42.7751132 340.205549,42.7751132 341.05866,43.6259876 L351.886598,54.425547 C352.741896,55.2764214 352.741896,56.6574559 351.886598,57.510512" id="Fill-4" fill="#11EB9D"></path>
                <path d="M348.804901,57.4424421 C349.660199,58.2954982 351.044863,58.2954982 351.897973,57.4424421 L373.936655,35.3262535 C374.791953,34.4731974 374.791953,33.0921628 373.936655,32.2412885 C373.081358,31.3882324 371.696694,31.3882324 370.843584,32.2412885 L348.804901,54.3574771 C347.949603,55.2083514 347.949603,56.589386 348.804901,57.4424421" id="Fill-6" fill="#11EB9D"></path>
                <g id="Group-6" transform="translate(148.386209, 119.475473)">
                    <path d="M20.470574,3.76718632 L14.1105546,3.76718632 C7.89916123,3.76718632 2.86241139,8.79713548 2.86241139,15.0018425 L2.86241139,21.3292648 L2.86241139,60.8532486 L2.86241139,67.187565 C2.86241139,73.3895144 7.89640061,78.4180847 14.1064136,78.4180847 L60.0141317,78.4180847 C66.2227644,78.4180847 71.2567536,73.3895144 71.2567536,67.187565 L71.2567536,60.8615215 C71.2567536,60.8612793 71.2567643,60.5071516 71.2567837,59.8613181 L31.7145763,59.861317 C25.5045633,59.861317 20.470574,54.8327467 20.470574,48.6307973 L20.470574,42.2964809 L20.470574,3.76718632 Z" id="Combined-Shape" fill="url(#linearGradient-1)" opacity="0.100000001" transform="translate(37.059598, 41.092636) scale(-1, 1) translate(-37.059598, -41.092636) "></path>
                    <path d="M2.804555,11.81033 C2.804555,7.0631092 6.67163875,3.20018822 11.4239753,3.20018822 L57.5639594,3.20018822 C62.3162959,3.20018822 66.1833797,7.0631092 66.1833797,11.81033 L66.1833797,57.9020324 C66.1833797,62.6492532 62.3162959,66.5107881 57.5639594,66.5107881 L11.4239753,66.5107881 C6.67163875,66.5107881 2.804555,62.6492532 2.804555,57.9020324 L2.804555,11.81033 Z M68.8710515,11.81033 C68.8710515,5.57310559 63.8079052,0.516795668 57.5639594,0.516795668 L11.4239753,0.516795668 C5.18002948,0.516795668 0.116883229,5.57310559 0.116883229,11.81033 L0.116883229,18.1709129 L0.116883229,57.9020324 L0.116883229,64.2695455 C0.116883229,70.5039978 5.17725439,75.5589217 11.4198126,75.5589217 L57.5681221,75.5589217 C63.8092928,75.5589217 68.8696639,70.5039978 68.8696639,64.2695455 L68.8696639,57.9103487 C68.8696639,57.9075766 68.8710515,57.9048045 68.8710515,57.9020324 L68.8710515,11.81033 Z" id="Fill-1-Copy-10" fill="#11EB9D"></path>
                    <g id="Group-5" transform="translate(17.647720, 18.538151)" fill="#11EB9D">
                        <g id="Group-15">
                            <path d="M16.7653343,0 C7.50667844,0 0,7.50993746 0,16.772613 C0,26.0363368 7.50667844,33.545226 16.7653343,33.545226 C26.025038,33.545226 33.5306686,26.0363368 33.5306686,16.772613 C33.5306686,7.50993746 26.025038,0 16.7653343,0 M16.7653343,2.09657662 C24.8546081,2.09657662 31.4350019,8.67982722 31.4350019,16.772613 C31.4350019,24.8653987 24.8546081,31.4811463 16.7653343,31.4811463 C8.67606051,31.4811463 2.09566679,24.8653987 2.09566679,16.772613 C2.09566679,8.67982722 8.67606051,2.09657662 16.7653343,2.09657662" id="Fill-1"></path>
                            <path d="M16.7653343,5.24133673 C17.3437384,5.24133673 17.8131677,5.71096989 17.8131677,6.28962504 L17.8131677,16.7725081 C17.8131677,17.3511633 17.3437384,17.8207965 16.7653343,17.8207965 C16.1869303,17.8207965 15.7175009,17.3511633 15.7175009,16.7725081 L15.7175009,6.28962504 C15.7175009,5.71096989 16.1869303,5.24133673 16.7653343,5.24133673" id="Fill-4"></path>
                            <path d="M22.7589413,22.7774181 C22.3492385,23.1872988 21.6859599,23.1872988 21.2773049,22.7774181 L16.0905296,17.5883909 C15.6808268,17.1795585 15.6808268,16.515992 16.0905296,16.1061113 C16.5002325,15.6972788 17.163511,15.6972788 17.572166,16.1061113 L22.7589413,21.2951384 C23.1686442,21.7039709 23.1686442,22.3675374 22.7589413,22.7774181" id="Fill-6"></path>
                        </g>
                    </g>
                </g>
            </g>
        </g>
    </g>
</svg>
