<?xml version="1.0" encoding="UTF-8" standalone="no"?>
<svg width="589px" height="394px" viewBox="0 0 589 394" version="1.1" xmlns="http://www.w3.org/2000/svg" xmlns:xlink="http://www.w3.org/1999/xlink">
    <!-- Generator: Sketch 39.1 (31720) - http://www.bohemiancoding.com/sketch -->
    <title>Group 18</title>
    <desc>Created with Sketch.</desc>
    <defs>
        <linearGradient x1="13.1396851%" y1="88.7766325%" x2="64.6323056%" y2="23.191084%" id="linearGradient-1">
            <stop stop-color="#07EF9C" offset="0%"></stop>
            <stop stop-color="#174FEE" offset="100%"></stop>
        </linearGradient>
    </defs>
    <g id="Manifesto" stroke="none" stroke-width="1" fill="none" fill-rule="evenodd">
        <g id="Manifesto---Tablet-Portrait" transform="translate(-89.000000, -1977.000000)">
            <g id="Group-18" transform="translate(89.000000, 1977.000000)">
                <path d="M230.470304,283.959128 L230.470304,235.768879" id="Line-Copy-17" stroke="#D5D5D5" stroke-linecap="square"></path>
                <text id="N" font-family="Avenir-Heavy, Avenir" font-size="50" font-weight="600" line-spacing="46" letter-spacing="-0.156250015" fill="#2C53F0">
                    <tspan x="109.192308" y="220.397703">N</tspan>
                </text>
                <text id="N-Copy" font-family="Avenir-Heavy, Avenir" font-size="50" font-weight="600" line-spacing="46" letter-spacing="-0.156250015" fill="#2C53F0">
                    <tspan x="209.820513" y="220.697548">N</tspan>
                </text>
                <text id="C" font-family="Avenir-Heavy, Avenir" font-size="50" font-weight="600" line-spacing="46" letter-spacing="-0.156250015" fill="#2C53F0">
                    <tspan x="12.3418627" y="65.254152">C</tspan>
                </text>
                <text id="O" font-family="Avenir-Heavy, Avenir" font-size="50" font-weight="600" line-spacing="46" letter-spacing="-0.156250015" fill="#2C53F0">
                    <tspan x="132.929381" y="117.824184">O</tspan>
                </text>
                <path d="M3.62480962,12.3492679 C3.62480962,7.15827104 7.8346325,2.93423941 13.008168,2.93423941 L63.2375329,2.93423941 C68.4110683,2.93423941 72.6208912,7.15827104 72.6208912,12.3492679 L72.6208912,62.7496798 C72.6208912,67.9406767 68.4110683,72.1631927 63.2375329,72.1631927 L13.008168,72.1631927 C7.8346325,72.1631927 3.62480962,67.9406767 3.62480962,62.7496798 L3.62480962,12.3492679 Z M75.546771,12.3492679 C75.546771,5.52898005 70.0348787,0 63.2375329,0 L13.008168,0 C6.2108221,0 0.698929858,5.52898005 0.698929858,12.3492679 L0.698929858,19.304446 L0.698929858,62.7496798 L0.698929858,69.7124359 C0.698929858,76.5296926 6.20780105,82.057157 13.0036364,82.057157 L63.2420644,82.057157 C70.0363893,82.057157 75.5452605,76.5296926 75.5452605,69.7124359 L75.5452605,62.7587735 C75.5452605,62.7557423 75.546771,62.7527111 75.546771,62.7496798 L75.546771,12.3492679 Z" id="Fill-1" fill="#2C53F0"></path>
                <path d="M124.212328,64.9193002 C124.212328,59.7283033 128.422151,55.5042717 133.595687,55.5042717 L183.825051,55.5042717 C188.998587,55.5042717 193.20841,59.7283033 193.20841,64.9193002 L193.20841,115.319712 C193.20841,120.510709 188.998587,124.733225 183.825051,124.733225 L133.595687,124.733225 C128.422151,124.733225 124.212328,120.510709 124.212328,115.319712 L124.212328,64.9193002 Z M196.13429,64.9193002 C196.13429,58.0990124 190.622397,52.5700323 183.825051,52.5700323 L133.595687,52.5700323 C126.798341,52.5700323 121.286448,58.0990124 121.286448,64.9193002 L121.286448,71.8744783 L121.286448,115.319712 L121.286448,122.282468 C121.286448,129.099725 126.79532,134.627189 133.591155,134.627189 L183.829583,134.627189 C190.623908,134.627189 196.132779,129.099725 196.132779,122.282468 L196.132779,115.328806 C196.132779,115.325775 196.13429,115.322743 196.13429,115.319712 L196.13429,64.9193002 Z" id="Fill-1-Copy-2" fill="#2C53F0"></path>
                <path d="M101.413059,165.569859 C101.413059,160.378862 105.622882,156.154831 110.796418,156.154831 L161.025783,156.154831 C166.199318,156.154831 170.409141,160.378862 170.409141,165.569859 L170.409141,215.970271 C170.409141,221.161268 166.199318,225.383784 161.025783,225.383784 L110.796418,225.383784 C105.622882,225.383784 101.413059,221.161268 101.413059,215.970271 L101.413059,165.569859 Z M173.335021,165.569859 C173.335021,158.749571 167.823128,153.220591 161.025783,153.220591 L110.796418,153.220591 C103.999072,153.220591 98.4871795,158.749571 98.4871795,165.569859 L98.4871795,172.525037 L98.4871795,215.970271 L98.4871795,222.933027 C98.4871795,229.750284 103.996051,235.277748 110.791886,235.277748 L161.030314,235.277748 C167.824639,235.277748 173.33351,229.750284 173.33351,222.933027 L173.33351,215.979365 C173.33351,215.976334 173.335021,215.973302 173.335021,215.970271 L173.335021,165.569859 Z" id="Fill-1-Copy-3" fill="#2C53F0"></path>
                <path d="M202.041264,165.869704 C202.041264,160.678707 206.251087,156.454675 211.424623,156.454675 L261.653988,156.454675 C266.827523,156.454675 271.037346,160.678707 271.037346,165.869704 L271.037346,216.270116 C271.037346,221.461113 266.827523,225.683629 261.653988,225.683629 L211.424623,225.683629 C206.251087,225.683629 202.041264,221.461113 202.041264,216.270116 L202.041264,165.869704 Z M273.963226,165.869704 C273.963226,159.049416 268.451333,153.520436 261.653988,153.520436 L211.424623,153.520436 C204.627277,153.520436 199.115385,159.049416 199.115385,165.869704 L199.115385,172.824882 L199.115385,216.270116 L199.115385,223.232872 C199.115385,230.050129 204.624256,235.577593 211.420091,235.577593 L261.658519,235.577593 C268.452844,235.577593 273.961715,230.050129 273.961715,223.232872 L273.961715,216.27921 C273.961715,216.276178 273.963226,216.273147 273.963226,216.270116 L273.963226,165.869704 Z" id="Fill-1-Copy-4" fill="#2C53F0"></path>
                <text id="E" font-family="Avenir-Heavy, Avenir" font-size="50" font-weight="600" line-spacing="46" letter-spacing="-0.156250015" fill="#2C53F0">
                    <tspan x="222.640125" y="350.578589">E</tspan>
                </text>
                <text id="C" font-family="Avenir-Heavy, Avenir" font-size="50" font-weight="600" line-spacing="46" letter-spacing="-0.156250015" fill="#2C53F0">
                    <tspan x="323.26833" y="350.578589">C</tspan>
                </text>
                <text id="T" font-family="Avenir-Heavy, Avenir" font-size="50" font-weight="600" line-spacing="46" letter-spacing="-0.156250015" fill="#2C53F0">
                    <tspan x="438" y="351">T</tspan>
                </text>
                <path d="M213.923072,295.526566 C213.923072,290.335569 218.132895,286.111538 223.30643,286.111538 L273.535795,286.111538 C278.709331,286.111538 282.919154,290.335569 282.919154,295.526566 L282.919154,345.926978 C282.919154,351.117975 278.709331,355.340491 273.535795,355.340491 L223.30643,355.340491 C218.132895,355.340491 213.923072,351.117975 213.923072,345.926978 L213.923072,295.526566 Z M285.845033,295.526566 C285.845033,288.706278 280.333141,283.177298 273.535795,283.177298 L223.30643,283.177298 C216.509084,283.177298 210.997192,288.706278 210.997192,295.526566 L210.997192,302.481744 L210.997192,345.926978 L210.997192,352.889734 C210.997192,359.706991 216.506063,365.234455 223.301899,365.234455 L273.540327,365.234455 C280.334652,365.234455 285.843523,359.706991 285.843523,352.889734 L285.843523,345.936072 C285.843523,345.93304 285.845033,345.930009 285.845033,345.926978 L285.845033,295.526566 Z" id="Fill-1-Copy-5" fill="#2C53F0"></path>
                <path d="M314.551277,295.526566 C314.551277,290.335569 318.7611,286.111538 323.934635,286.111538 L374.164,286.111538 C379.337536,286.111538 383.547359,290.335569 383.547359,295.526566 L383.547359,345.926978 C383.547359,351.117975 379.337536,355.340491 374.164,355.340491 L323.934635,355.340491 C318.7611,355.340491 314.551277,351.117975 314.551277,345.926978 L314.551277,295.526566 Z M386.473238,295.526566 C386.473238,288.706278 380.961346,283.177298 374.164,283.177298 L323.934635,283.177298 C317.13729,283.177298 311.625397,288.706278 311.625397,295.526566 L311.625397,302.481744 L311.625397,345.926978 L311.625397,352.889734 C311.625397,359.706991 317.134269,365.234455 323.930104,365.234455 L374.168532,365.234455 C380.962857,365.234455 386.471728,359.706991 386.471728,352.889734 L386.471728,345.936072 C386.471728,345.93304 386.473238,345.930009 386.473238,345.926978 L386.473238,295.526566 Z" id="Fill-1-Copy-6" fill="#2C53F0"></path>
                <path d="M428.989982,295.771611 C428.989982,290.580614 433.199805,286.356583 438.373341,286.356583 L488.602706,286.356583 C493.776241,286.356583 497.986064,290.580614 497.986064,295.771611 L497.986064,346.172023 C497.986064,351.36302 493.776241,355.585536 488.602706,355.585536 L438.373341,355.585536 C433.199805,355.585536 428.989982,351.36302 428.989982,346.172023 L428.989982,295.771611 Z M500.911944,295.771611 C500.911944,288.951323 495.400051,283.422343 488.602706,283.422343 L438.373341,283.422343 C431.575995,283.422343 426.064103,288.951323 426.064103,295.771611 L426.064103,302.726789 L426.064103,346.172023 L426.064103,353.134779 C426.064103,359.952036 431.572974,365.4795 438.368809,365.4795 L488.607237,365.4795 C495.401562,365.4795 500.910433,359.952036 500.910433,353.134779 L500.910433,346.181117 C500.910433,346.178086 500.911944,346.175054 500.911944,346.172023 L500.911944,295.771611 Z" id="Fill-1-Copy-7" fill="#2C53F0"></path>
                <path d="M22.7908168,111.114441 L22.7908169,88.0326975" id="Line-Copy-15" stroke="#D5D5D5" stroke-linecap="square"></path>
                <path d="M114.854919,110.446224 L114.854919,90.6989912" id="Line-Copy-17" stroke="#D5D5D5" stroke-linecap="square"></path>
                <rect id="Rectangle-174-Copy-7" fill="#2C53F0" x="19.4386645" y="81.419313" width="6.69263051" height="6.69641861"></rect>
                <rect id="Rectangle-174-Copy-8" stroke="#2C53F0" stroke-width="2" stroke-linecap="square" x="112.403846" y="84.8119891" width="4.90214655" height="4.90492122"></rect>
                <path d="M68.8565993,155.539873 L68.8565993,63.500491" id="Line-Copy-13" stroke="#757575" stroke-linecap="square" opacity="0.3" transform="translate(69.307139, 109.932985) rotate(-450.000000) translate(-69.307139, -109.932985) "></path>
                <polyline id="Rectangle-147-Copy-9" stroke="#2C53F0" stroke-width="2" stroke-linecap="square" fill="#295FE9" transform="translate(22.901563, 110.785461) rotate(-450.000000) translate(-22.901563, -110.785461) " points="22.1309794 109.946805 23.6721472 109.946805 23.6721472 111.624118 22.1309794 111.624118 22.1309794 109.946805"></polyline>
                <path d="M138.406201,261.414169 L138.406201,238.332425" id="Line-Copy-15" stroke="#D5D5D5" stroke-linecap="square"></path>
                <rect id="Rectangle-174-Copy-7" stroke="#2C53F0" stroke-width="2" stroke-linecap="square" fill="#2C53F0" x="135.955128" y="232.620642" width="4.90214655" height="4.90492122"></rect>
                <path d="M184.45114,307.263079 L184.45114,214.821292" id="Line-Copy-13" stroke="#757575" stroke-linecap="square" opacity="0.3" transform="translate(184.852582, 261.183589) rotate(-450.000000) translate(-184.852582, -261.183589) "></path>
                <path d="M259.37415,392.389646 L259.37415,365.593101" id="Line-Copy-16" stroke="#D5D5D5" stroke-linecap="square"></path>
                <rect id="Rectangle-174-Copy-11" stroke="#2C53F0" stroke-width="2" stroke-linecap="square" x="486.74359" y="388.632153" width="3.21153846" height="3.21335623"></rect>
                <path d="M373.128751,505.306684 L373.128751,278.438372" id="Line-Copy-13" stroke="#757575" stroke-linecap="square" opacity="0.3" transform="translate(372.924787, 391.863159) rotate(-450.000000) translate(-372.924787, -391.863159) "></path>
                <polygon id="Rectangle-147-Copy-9" stroke="#2C53F0" stroke-width="2" stroke-linecap="square" fill="#2C53F0" transform="translate(259.484897, 392.060666) rotate(-450.000000) translate(-259.484897, -392.060666) " points="260.255481 391.22201 260.255481 392.899322 258.714313 392.899322 258.714313 391.22201"></polygon>
                <path d="M457.843296,376.731256 L478.541971,376.731256" id="Line-Copy-13" stroke="#757575" stroke-linecap="square" opacity="0.3" transform="translate(468.104471, 376.731256) rotate(-450.000000) translate(-468.104471, -376.731256) "></path>
                <path d="M336.896106,293.873359 L329.936113,293.873359 C323.138767,293.873359 317.626875,299.402339 317.626875,306.222627 L317.626875,313.177805 L317.626875,356.623039 L317.626875,363.585795 C317.626875,370.403051 323.135746,375.930516 329.931581,375.930516 L380.17001,375.930516 C386.964334,375.930516 392.473206,370.403051 392.473206,363.585795 L392.473206,356.632132 C392.473206,356.631866 392.473217,356.242605 392.473238,355.532697 L349.200812,355.532696 C342.404977,355.532696 336.896106,350.005231 336.896106,343.187975 L336.896106,336.225218 L336.896106,293.873359 Z" id="Combined-Shape-Copy" fill="url(#linearGradient-1)" opacity="0.1" transform="translate(355.050057, 334.901937) scale(-1, 1) translate(-355.050057, -334.901937) "></path>
                <path d="M146.310598,61.194508 L139.350605,61.194508 C132.553259,61.194508 127.041367,66.7234881 127.041367,73.5437759 L127.041367,80.498954 L127.041367,123.944188 L127.041367,130.906944 C127.041367,137.724201 132.550238,143.251665 139.346073,143.251665 L189.584501,143.251665 C196.378826,143.251665 201.887698,137.724201 201.887698,130.906944 L201.887698,123.953282 C201.887698,123.953015 201.887709,123.563754 201.88773,122.853847 L158.615304,122.853845 C151.819469,122.853845 146.310598,117.32638 146.310598,110.509124 L146.310598,103.546368 L146.310598,61.194508 Z" id="Combined-Shape-Copy-3" fill="url(#linearGradient-1)" opacity="0.1" transform="translate(164.464549, 102.223087) scale(-1, 1) translate(-164.464549, -102.223087) "></path>
                <g id="Group-16" transform="translate(501.000000, 11.000000)">
                    <text id="+" font-family="Avenir-Heavy, Avenir" font-size="56" font-weight="600" line-spacing="46" letter-spacing="-0.175000012" fill="#295CEB">
                        <tspan x="18.8571429" y="74.7207207">+</tspan>
                    </text>
                    <path d="M26.501656,9.69866969 L18.8742993,9.69866969 C11.4251849,9.69866969 5.38478076,15.7621538 5.38478076,23.2417807 L5.38478076,30.8693379 L5.38478076,78.5145608 L5.38478076,86.1504287 C5.38478076,93.6267312 11.4218741,99.6885532 18.8693332,99.6885532 L73.92491,99.6885532 C81.3707137,99.6885532 87.4078071,93.6267312 87.4078071,86.1504287 L87.4078071,78.5245336 C87.4078071,78.5242416 87.4078199,78.0973493 87.4078432,77.3188128 L39.9862084,77.3188109 C32.5387494,77.3188109 26.501656,71.2569889 26.501656,63.7806863 L26.501656,56.1448184 L26.501656,9.69866969 Z" id="Combined-Shape" fill="url(#linearGradient-1)" opacity="0.100000001" transform="translate(46.396312, 54.693611) scale(-1, 1) translate(-46.396312, -54.693611) "></path>
                    <path d="M3.71947172,13.543111 C3.71947172,7.85028389 8.33295657,3.21790167 14.0025603,3.21790167 L69.048205,3.21790167 C74.7178087,3.21790167 79.3312936,7.85028389 79.3312936,13.543111 L79.3312936,68.8158911 C79.3312936,74.5087182 74.7178087,79.1394382 69.048205,79.1394382 L14.0025603,79.1394382 C8.33295657,79.1394382 3.71947172,74.5087182 3.71947172,68.8158911 L3.71947172,13.543111 Z M82.5377235,13.543111 C82.5377235,6.06348415 76.4973194,0 69.048205,0 L14.0025603,0 C6.55344591,0 0.513041809,6.06348415 0.513041809,13.543111 L0.513041809,21.1706682 L0.513041809,68.8158911 L0.513041809,76.451759 C0.513041809,83.9280615 6.55013519,89.9898835 13.9975942,89.9898835 L69.0531711,89.9898835 C76.4989748,89.9898835 82.5360682,83.9280615 82.5360682,76.451759 L82.5360682,68.8258639 C82.5360682,68.8225396 82.5377235,68.8192154 82.5377235,68.8158911 L82.5377235,13.543111 Z" id="Fill-1-Copy-10" fill="#2C53F0" transform="translate(41.525383, 44.994942) scale(-1, 1) translate(-41.525383, -44.994942) "></path>
                </g>
            </g>
        </g>
    </g>
</svg>