<?xml version="1.0" encoding="UTF-8" standalone="no"?>
<svg width="294px" height="47px" viewBox="0 0 294 47" version="1.1" xmlns="http://www.w3.org/2000/svg" xmlns:xlink="http://www.w3.org/1999/xlink">
    <!-- Generator: sketchtool 3.8.3 (29802) - http://www.bohemiancoding.com/sketch -->
    <title>A69409ED-45C7-4B0F-A9CB-1CF0E5CA1704</title>
    <desc>Created with sketchtool.</desc>
    <defs></defs>
    <g id="Homepage" stroke="none" stroke-width="1" fill="none" fill-rule="evenodd">
        <g transform="translate(-262.000000, -102.000000)" id="Group-12">
            <g transform="translate(262.000000, 102.000000)">
                <polygon id="Fill-2" fill="#89FED4" points="281.292658 46.9686136 293.957396 46.9686136 293.957396 0 281.292658 0"></polygon>
                <g id="Group-10" transform="translate(0.000000, 8.000000)" fill="#FFFFFF">
                    <polygon id="Fill-3" points="145.162759 34.7000576 152.135227 34.7000576 152.135227 27.7382424 145.162759 27.7382424"></polygon>
                    <path d="M254.3158,34.7723022 L254.3158,1.31467508 L254.3158,34.7723022 Z" id="Fill-1"></path>
                    <path d="M14.3267277,21.0640512 C14.3267277,19.3940376 14.2865969,18.0225139 13.6445041,17.0342393 C13.0064004,16.1347071 11.9831049,15.6627156 10.6627776,15.6627156 C7.25165959,15.6627156 5.7587619,17.8490919 5.7587619,21.3222325 L5.7587619,34.6944495 L3.19131614e-05,34.6944495 L3.19131614e-05,0.922957966 L5.7587619,0.922957966 L5.7587619,15.4085969 L5.7988927,15.4085969 C6.69381753,13.3512715 8.95717872,11.3344139 12.7094485,11.3344139 C17.8261654,11.3344139 20.0855375,13.9523139 20.0855375,19.4787173 L20.0855375,34.6944495 L14.3267277,34.6944495 L14.3267277,21.0640512 Z" id="Fill-4"></path>
                    <path d="M33.3846135,31.0518937 C35.9850575,31.0518937 38.7140317,28.994648 38.7140317,24.7066547 L38.7140317,24.4080853 C34.66481,24.6218954 32.4896887,24.7510259 31.3379427,25.5658785 C30.4871378,26.2072293 30.1018662,27.0664531 30.1018662,28.0506649 C30.1018662,30.0636192 31.3820626,31.0518937 33.3846135,31.0518937 M32.0642862,35.1664649 C27.7983742,35.1664649 24.3872561,33.1938988 24.3872561,28.2644751 C24.3872561,25.6505581 25.5390021,23.7667344 27.8425739,22.5202785 C30.2744366,21.2374971 33.2160322,20.9349446 38.7140317,20.7211344 L38.7140317,19.6521632 C38.7140317,16.7800649 37.3937044,15.36417 34.7490607,15.36417 C32.0201663,15.36417 30.9566602,16.8648242 30.8282895,18.6235802 L25.3263009,18.6235802 C25.5390021,14.3355869 28.9099894,11.3343581 34.66481,11.3343581 C40.5921212,11.3343581 44.08749,13.6497853 44.08749,19.8659734 L44.08749,28.9502768 C44.08749,29.9788598 44.4286417,30.3218005 45.496137,30.3218005 L46.4753126,30.3218005 L46.4753126,34.6944734 L43.8306689,34.6944734 C41.0616436,34.6944734 39.6088767,34.0531225 39.1434233,31.5238853 L38.9708529,31.5238853 C37.7347763,33.581131 35.4312843,35.1664649 32.0642862,35.1664649" id="Fill-6"></path>
                    <path d="M60.1702395,15.4085731 C56.333719,15.4085731 54.9692718,18.8373425 54.9692718,23.1657239 C54.9692718,27.4093459 56.0327779,31.0962968 60.1261195,31.0962968 C63.4529868,31.0962968 64.6889836,28.6920476 64.9016848,26.5944934 L70.6162948,26.5944934 C70.2752229,32.2499476 65.7966096,35.2955476 60.1261195,35.2955476 C52.6657798,35.2955476 49.0419605,30.8381154 49.0419605,23.2947747 C49.0419605,15.6223832 53.2195529,11.2940019 60.2103703,11.2940019 C65.7564788,11.2940019 70.1908924,13.9926781 70.5320441,19.6078239 L64.6889836,19.6078239 C64.3920316,17.2520883 63.0677152,15.4085731 60.1702395,15.4085731" id="Fill-8"></path>
                    <polygon id="Fill-10" points="75.1300764 34.6944654 75.1300764 0.922973898 80.7163158 0.922973898 80.7163158 22.3064603 89.7979239 11.8507129 96.1506376 11.8507129 87.8796238 21.1084383 96.917112 34.6944654 90.4360276 34.6944654 84.0832341 24.7066468 80.7163158 28.5226485 80.7163158 34.6944654"></polygon>
                    <path d="M109.249897,15.2794903 C106.007361,15.2794903 104.474332,17.3367361 104.00481,20.9349446 L114.065593,20.9349446 L114.065593,20.6808259 C113.937143,17.7199853 112.444325,15.2794903 109.249897,15.2794903 M109.374279,35.2955158 C101.829688,35.2955158 98.0774187,30.4508514 98.0774187,23.2947429 C98.0774187,16.3928327 102.12664,11.2940497 109.334148,11.2940497 C116.754357,11.2940497 119.992905,16.6066429 119.992905,22.822831 L119.992905,24.924448 L103.96061,24.924448 C104.301762,29.0390192 106.051481,31.1365734 109.502729,31.1365734 C112.488445,31.1365734 113.467621,29.7247412 114.025463,28.2644751 L119.736084,28.2644751 C118.841159,32.5524683 115.30167,35.2955158 109.374279,35.2955158" id="Fill-12"></path>
                    <path d="M130.410733,25.0605647 L130.410733,34.7000258 L124.711042,34.7000258 L124.711042,12.0680919 L130.19859,12.0680919 L130.19859,17.3753478 L130.282681,17.3753478 C131.943761,13.1710783 134.793527,11.6444546 138.876178,11.6444546 C140.361177,11.6444546 142.062228,11.9401563 143.04292,12.4477563 L143.04292,17.3753478 C141.810114,16.9077376 140.277086,16.5680631 138.2798,16.5680631 C133.132527,16.5680631 130.410733,19.797202 130.410733,25.0605647" id="Fill-14"></path>
                    <path d="M161.160468,12.068052 L162.733468,26.3354198 C162.861599,27.1826944 162.90556,28.161808 162.9496,28.9690927 C162.989651,29.4327198 162.989651,29.9002503 163.033691,30.3278707 L163.329845,30.3278707 C163.329845,29.9002503 163.373885,29.4327198 163.413936,28.9690927 C163.457976,28.161808 163.586028,27.1427046 163.71408,26.2914469 L165.755405,12.068052 L171.451106,12.068052 L173.492432,26.3793927 C173.620483,27.2266673 173.664523,28.161808 173.792655,28.9690927 C173.836615,29.4327198 173.836615,29.8603402 173.876666,30.3278707 L174.17282,30.3278707 C174.216861,29.9002503 174.216861,29.4327198 174.260901,28.9690927 C174.300952,28.161808 174.344992,27.1826944 174.473043,26.3354198 L176.046043,12.068052 L180.765122,12.068052 L177.40698,34.7000656 L171.026821,34.7000656 L169.197638,21.5796571 C169.029536,20.5605537 168.945524,19.4574876 168.817393,18.6063097 C168.773353,18.0987097 168.729313,17.6310995 168.689341,17.163569 L168.393107,17.163569 C168.349147,17.6310995 168.305107,18.0987097 168.265056,18.6063097 C168.137004,19.4574876 168.048924,20.5605537 167.924862,21.5796571 L166.095679,34.7000656 L159.71552,34.7000656 L156.313338,12.068052 L161.160468,12.068052 Z" id="Fill-16"></path>
                    <path d="M189.650177,23.4060214 C189.650177,28.1178908 191.139165,31.2590841 194.837502,31.2590841 C198.623999,31.2590841 200.024907,27.9899553 200.024907,23.4060214 C200.024907,18.7781146 198.451827,15.5929485 194.837502,15.5929485 C191.139165,15.5929485 189.650177,18.8181044 189.650177,23.4060214 M183.654332,23.4060214 C183.654332,15.8886502 187.820994,11.5165349 194.837502,11.5165349 C201.814038,11.5165349 206.020751,15.8886502 206.020751,23.4060214 C206.020751,30.8354468 201.725958,35.3354976 194.793462,35.3354976 C187.736983,35.3354976 183.654332,30.7515637 183.654332,23.4060214" id="Fill-18"></path>
                    <path d="M215.783418,25.0605647 L215.783418,34.7000258 L210.083728,34.7000258 L210.083728,12.0680919 L215.571275,12.0680919 L215.571275,17.3753478 L215.655367,17.3753478 C217.316367,13.1710783 220.162223,11.6444546 224.244874,11.6444546 C225.733862,11.6444546 227.434913,11.9401563 228.415525,12.4477563 L228.415525,17.3753478 C227.1828,16.9077376 225.649771,16.5680631 223.652486,16.5680631 C218.505212,16.5680631 215.783418,19.797202 215.783418,25.0605647" id="Fill-20"></path>
                    <polygon id="Fill-22" points="232.625581 34.6991654 232.625581 1.24074169 238.197141 1.24074169 238.197141 22.4260315 247.254973 12.0671519 253.591092 12.0671519 245.341779 21.2390824 254.355572 34.6991654 247.891402 34.6991654 241.555362 24.8039129 238.197141 28.5845451 238.197141 34.6991654"></polygon>
                    <path d="M266.58014,15.5929325 C263.986477,15.5929325 262.497489,16.5680631 262.497489,18.0987495 C262.497489,19.6693461 263.3901,20.304802 265.81566,20.6884495 L269.686168,21.3238258 C274.745441,22.1311902 276.574624,24.2132902 276.574624,27.6502647 C276.574624,32.7057919 272.748156,35.2954919 266.496128,35.2954919 C259.987918,35.2954919 256.797798,32.9176105 256.333542,28.1178749 L261.688969,28.1178749 C262.029163,30.1121088 263.137906,31.2590681 266.496128,31.2590681 C269.602077,31.2590681 271.175156,30.3679003 271.175156,28.5415122 C271.175156,27.0148088 270.282545,26.4633156 267.684814,25.9957054 L263.690323,25.3562664 C259.863776,24.8047732 257.142062,22.9384749 257.142062,18.6902325 C257.142062,14.613819 260.628335,11.516519 266.62418,11.516519 C272.960299,11.516519 275.810064,14.5298563 276.150339,18.2665953 L270.750871,18.2665953 C270.534659,16.48418 269.133831,15.5929325 266.58014,15.5929325" id="Fill-24"></path>
                </g>
            </g>
        </g>
    </g>
</svg>