<?xml version="1.0" encoding="UTF-8" standalone="no"?>
<svg width="45px" height="26px" viewBox="0 0 45 26" version="1.1" xmlns="http://www.w3.org/2000/svg" xmlns:xlink="http://www.w3.org/1999/xlink">
    <g id="Job-Offer" stroke="none" stroke-width="1" fill="none" fill-rule="evenodd">
        <g id="Job-Offer---Mobile" transform="translate(-30.000000, -35.000000)">
            <g id="Group" transform="translate(30.000000, 35.000000)">
                <g id="Page-1">
                    <polygon id="Fill-2" fill="#06EF9C" points="38.0412174 25.9826373 44.9766692 25.9826373 44.9766692 0 38.0412174 0"></polygon>
                    <polygon id="Fill-3" fill="#333132" points="14.493892 23.6213085 18.3121479 23.6213085 18.3121479 19.7700915 14.493892 19.7700915"></polygon>
                    <g id="Group-26" transform="translate(0.000000, 4.918231)" fill="#333132">
                        <path d="M7.84558898,11.1597553 C7.84558898,10.235918 7.82361259,9.47720271 7.47199034,8.93049763 C7.12255262,8.43288407 6.5621765,8.17178237 5.83914014,8.17178237 C3.97114692,8.17178237 3.15360771,9.38126712 3.15360771,11.302579 L3.15360771,18.6999756 L1.74762554e-05,18.6999756 L1.74762554e-05,0.0178738983 L3.15360771,0.0178738983 L3.15360771,8.0312061 L3.1755841,8.0312061 C3.66566198,6.89311119 4.90512168,5.77740271 6.95993607,5.77740271 C9.76194773,5.77740271 10.9992229,7.22560271 10.9992229,10.282762 L10.9992229,18.6999756 L7.84558898,18.6999756 L7.84558898,11.1597553 Z" id="Fill-4"></path>
                        <path d="M23.2545421,6.18324508 L24.1159467,14.0758315 C24.1861138,14.5445366 24.2101874,15.0861739 24.2343046,15.5327569 C24.2562373,15.7892315 24.2562373,16.0478654 24.2803545,16.2844214 L24.4425342,16.2844214 C24.4425342,16.0478654 24.4666514,15.7892315 24.4885841,15.5327569 C24.5127014,15.0861739 24.5828248,14.5224146 24.6529483,14.0515061 L25.770817,6.18324508 L28.8898916,6.18324508 L30.0077602,14.1001569 C30.0778837,14.568862 30.1020009,15.0861739 30.1721681,15.5327569 C30.1962417,15.7892315 30.1962417,16.0257875 30.2181744,16.2844214 L30.380354,16.2844214 C30.4044712,16.0478654 30.4044712,15.7892315 30.4285885,15.5327569 C30.4505212,15.0861739 30.4746384,14.5445366 30.5447619,14.0758315 L31.4061665,6.18324508 L33.990424,6.18324508 L32.1514414,18.7030824 L28.6575448,18.7030824 L27.6558495,11.4449841 C27.5637934,10.8812247 27.5177871,10.271018 27.4476199,9.80015356 C27.4235027,9.51935356 27.3993855,9.26067559 27.3774965,9.00204169 L27.2152731,9.00204169 C27.1911996,9.26067559 27.1670824,9.51935356 27.1451497,9.80015356 C27.0750262,10.271018 27.0267917,10.8812247 26.9588528,11.4449841 L25.9571575,18.7030824 L22.4632609,18.7030824 L20.6001611,6.18324508 L23.2545421,6.18324508 Z" id="Fill-16"></path>
                    </g>
                </g>
            </g>
        </g>
    </g>
</svg>
