<svg width="957" height="154" viewBox="0 0 957 154" version="1.1" xmlns="http://www.w3.org/2000/svg"><title>Group 13</title><desc>Created with Sketch.</desc><g id="Homepage" stroke="none" stroke-width="1" fill="none" fill-rule="evenodd"><g id="Homepage---Tablet-Landscape" transform="translate(-33.000000, -3610.000000)"><g id="Group-13" transform="translate(33.000000, 3610.000000)"><g id="Group-3" opacity="0.03" transform="translate(0.000000, 29.150000)"><path d="M827.54 111.43L827.54 1.86 827.54 111.43Z" id="Fill-1-Copy" fill="#F3F3F3"/><polygon id="Fill-3-Copy" fill="#464646" points="472.88 111.03 495.57 111.03 495.57 88.23 472.88 88.23"/><path d="M46.63 66.03C46.63 60.56 46.49 56.07 44.41 52.84 42.33 49.89 39 48.34 34.7 48.34 23.6 48.34 18.74 55.5 18.74 66.88L18.74 110.67 0 110.67 0 0.07 18.74 0.07 18.74 47.51 18.87 47.51C21.78 40.77 29.15 34.17 41.36 34.17 58.01 34.17 65.37 42.74 65.37 60.84L65.37 110.67 46.63 110.67 46.63 66.03Z" id="Fill-4" fill="#464646"/><path d="M108.65 98.74C117.11 98.74 125.99 92.01 125.99 77.96L125.99 76.98C112.81 77.68 105.74 78.11 101.99 80.78 99.22 82.88 97.96 85.69 97.96 88.91 97.96 95.51 102.13 98.74 108.65 98.74M104.35 112.22C90.47 112.22 79.37 105.76 79.37 89.61 79.37 81.05 83.12 74.88 90.61 70.8 98.53 66.6 108.1 65.61 125.99 64.91L125.99 61.41C125.99 52 121.7 47.37 113.09 47.37 104.21 47.37 100.75 52.28 100.33 58.04L82.42 58.04C83.12 44 94.09 34.17 112.81 34.17 132.1 34.17 143.48 41.75 143.48 62.11L143.48 91.86C143.48 95.23 144.59 96.35 148.06 96.35L151.25 96.35 151.25 110.67 142.64 110.67C133.63 110.67 128.9 108.57 127.39 100.29L126.83 100.29C122.81 107.03 115.31 112.22 104.35 112.22" id="Fill-6" fill="#464646"/><path d="M195.82 47.51C183.33 47.51 178.89 58.74 178.89 72.92 178.89 86.81 182.36 98.89 195.68 98.89 206.5 98.89 210.53 91.01 211.22 84.14L229.82 84.14C228.71 102.67 214.13 112.64 195.68 112.64 171.4 112.64 159.6 98.04 159.6 73.34 159.6 48.21 173.2 34.04 195.95 34.04 214 34.04 228.43 42.87 229.54 61.26L210.53 61.26C209.56 53.55 205.25 47.51 195.82 47.51" id="Fill-8" fill="#464646"/><polygon id="Fill-10" fill="#464646" points="244.51 110.67 244.51 0.07 262.69 0.07 262.69 70.1 292.24 35.86 312.92 35.86 286 66.18 315.41 110.67 294.32 110.67 273.64 77.96 262.69 90.46 262.69 110.67"/><path d="M355.55 47.09C344.99 47.09 340.01 53.83 338.48 65.61L371.22 65.61 371.22 64.78C370.8 55.08 365.94 47.09 355.55 47.09M355.95 112.64C331.4 112.64 319.19 96.77 319.19 73.34 319.19 50.74 332.36 34.04 355.82 34.04 379.97 34.04 390.51 51.44 390.51 71.79L390.51 78.68 338.33 78.68C339.44 92.15 345.14 99.02 356.37 99.02 366.09 99.02 369.27 94.4 371.09 89.61L389.67 89.61C386.76 103.66 375.24 112.64 355.95 112.64" id="Fill-12" fill="#464646"/><path d="M424.41 79.12L424.41 110.69 405.86 110.69 405.86 36.57 423.72 36.57 423.72 53.95 424 53.95C429.4 40.18 438.68 35.18 451.96 35.18 456.8 35.18 462.33 36.15 465.52 37.82L465.52 53.95C461.51 52.42 456.52 51.31 450.02 51.31 433.27 51.31 424.41 61.88 424.41 79.12" id="Fill-14" fill="#464646"/><path d="M524.49 36.57L529.61 83.3C530.02 86.07 530.17 89.28 530.31 91.92 530.44 93.44 530.44 94.97 530.58 96.37L531.55 96.37C531.55 94.97 531.69 93.44 531.82 91.92 531.96 89.28 532.38 85.94 532.8 83.15L539.44 36.57 557.98 36.57 564.62 83.44C565.04 86.22 565.18 89.28 565.6 91.92 565.74 93.44 565.74 94.84 565.87 96.37L566.83 96.37C566.98 94.97 566.98 93.44 567.12 91.92 567.25 89.28 567.39 86.07 567.81 83.3L572.93 36.57 588.29 36.57 577.36 110.69 556.6 110.69 550.64 67.72C550.1 64.38 549.82 60.77 549.41 57.98 549.26 56.32 549.12 54.79 548.99 53.26L548.02 53.26C547.88 54.79 547.74 56.32 547.61 57.98 547.19 60.77 546.9 64.38 546.5 67.72L540.55 110.69 519.78 110.69 508.71 36.57 524.49 36.57Z" id="Fill-16" fill="#464646"/><path d="M617.2 73.7C617.2 89.13 622.05 99.42 634.09 99.42 646.41 99.42 650.97 88.71 650.97 73.7 650.97 58.55 645.85 48.12 634.09 48.12 622.05 48.12 617.2 58.68 617.2 73.7M597.69 73.7C597.69 49.08 611.25 34.77 634.09 34.77 656.79 34.77 670.48 49.08 670.48 73.7 670.48 98.03 656.5 112.77 633.94 112.77 610.98 112.77 597.69 97.76 597.69 73.7" id="Fill-18" fill="#464646"/><path d="M702.25 79.12L702.25 110.69 683.7 110.69 683.7 36.57 701.56 36.57 701.56 53.95 701.84 53.95C707.24 40.18 716.5 35.18 729.79 35.18 734.64 35.18 740.17 36.15 743.36 37.82L743.36 53.95C739.35 52.42 734.36 51.31 727.86 51.31 711.11 51.31 702.25 61.88 702.25 79.12" id="Fill-20" fill="#464646"/><polygon id="Fill-22" fill="#464646" points="757.07 110.69 757.07 1.11 775.2 1.11 775.2 70.49 804.68 36.57 825.3 36.57 798.45 66.61 827.78 110.69 806.75 110.69 786.13 78.28 775.2 90.66 775.2 110.69"/><path d="M867.57 48.12C859.13 48.12 854.28 51.31 854.28 56.32 854.28 61.47 857.19 63.55 865.08 64.8L877.68 66.88C894.14 69.53 900.09 76.35 900.09 87.6 900.09 104.16 887.64 112.64 867.29 112.64 846.11 112.64 835.73 104.85 834.22 89.13L851.65 89.13C852.76 95.66 856.37 99.42 867.29 99.42 877.4 99.42 882.52 96.5 882.52 90.52 882.52 85.52 879.62 83.72 871.16 82.18L858.16 80.09C845.71 78.28 836.85 72.17 836.85 58.26 836.85 44.91 848.2 34.77 867.71 34.77 888.33 34.77 897.61 44.63 898.71 56.87L881.14 56.87C880.44 51.03 875.88 48.12 867.57 48.12" id="Fill-24" fill="#464646"/></g><polygon id="Fill-2" fill="#1A1A1A" opacity="0.02" points="915.45 153.82 956.67 153.82 956.67 0 915.45 0"/></g></g></g></svg>
