<svg width="45" height="26" viewBox="0 0 45 26" version="1.1" xmlns="http://www.w3.org/2000/svg"><g stroke="none" stroke-width="1" fill="none" fill-rule="evenodd"><g transform="translate(-30.000000, -35.000000)"><g transform="translate(30.000000, 35.000000)"><polygon fill="#06EF9C" points="38.04 25.98 44.98 25.98 44.98 0 38.04 0"/><polygon fill="#ffffff" points="14.49 23.62 18.31 23.62 18.31 19.77 14.49 19.77"/><g transform="translate(0.000000, 4.918231)" fill="#ffffff"><path d="M7.85 11.16C7.85 10.24 7.82 9.48 7.47 8.93 7.12 8.43 6.56 8.17 5.84 8.17 3.97 8.17 3.15 9.38 3.15 11.3L3.15 18.7 0 18.7 0 0.02 3.15 0.02 3.15 8.03 3.18 8.03C3.67 6.89 4.91 5.78 6.96 5.78 9.76 5.78 11 7.23 11 10.28L11 18.7 7.85 18.7 7.85 11.16Z"/><path d="M23.25 6.18L24.12 14.08C24.19 14.54 24.21 15.09 24.23 15.53 24.26 15.79 24.26 16.05 24.28 16.28L24.44 16.28C24.44 16.05 24.47 15.79 24.49 15.53 24.51 15.09 24.58 14.52 24.65 14.05L25.77 6.18 28.89 6.18 30.01 14.1C30.08 14.57 30.1 15.09 30.17 15.53 30.2 15.79 30.2 16.03 30.22 16.28L30.38 16.28C30.4 16.05 30.4 15.79 30.43 15.53 30.45 15.09 30.47 14.54 30.54 14.08L31.41 6.18 33.99 6.18 32.15 18.7 28.66 18.7 27.66 11.44C27.56 10.88 27.52 10.27 27.45 9.8 27.42 9.52 27.4 9.26 27.38 9L27.22 9C27.19 9.26 27.17 9.52 27.15 9.8 27.08 10.27 27.03 10.88 26.96 11.44L25.96 18.7 22.46 18.7 20.6 6.18 23.25 6.18Z"/></g></g></g></g></svg>
