<?xml version="1.0" encoding="UTF-8" standalone="no"?>
<svg width="212px" height="34px" viewBox="0 0 212 34" version="1.1" xmlns="http://www.w3.org/2000/svg" xmlns:xlink="http://www.w3.org/1999/xlink">
    <!-- Generator: Sketch 39.1 (31720) - http://www.bohemiancoding.com/sketch -->
    <title>Group</title>
    <desc>Created with Sketch.</desc>
    <defs></defs>
    <g id="Job-Offer" stroke="none" stroke-width="1" fill="none" fill-rule="evenodd">
        <g id="Job-Offer---Tablet-Portrait" transform="translate(-47.000000, -122.000000)">
            <g id="Group" transform="translate(47.000000, 122.000000)">
                <g id="Page-1">
                    <path d="M183.363167,30.9271146 L183.363167,6.72378237 L183.363167,30.9271146 Z" id="Fill-1" fill="#F3F3F3"></path>
                    <polygon id="Fill-2" fill="#06EF9C" points="202.836882 33.9772949 211.969279 33.9772949 211.969279 0 202.836882 0"></polygon>
                    <polygon id="Fill-3" fill="#333132" points="104.675187 30.8894034 109.702953 30.8894034 109.702953 25.8531966 104.675187 25.8531966"></polygon>
                    <g id="Group-26" transform="translate(0.000000, 6.431532)" fill="#333132">
                        <path d="M10.3308377,14.5935261 C10.3308377,13.3854312 10.3018998,12.3932651 9.83889411,11.6783431 C9.37876494,11.0276176 8.64087837,10.6861769 7.68880564,10.6861769 C5.22908787,10.6861769 4.15257661,12.2678108 4.15257661,14.7802956 L4.15257661,24.4538142 L2.30122114e-05,24.4538142 L2.30122114e-05,0.0233735593 L4.15257661,0.0233735593 L4.15257661,10.5023464 L4.18151446,10.5023464 C4.82683441,9.01406847 6.45891799,7.55506508 9.16463631,7.55506508 C12.8542417,7.55506508 14.4834488,9.44886508 14.4834488,13.4466888 L14.4834488,24.4538142 L10.3308377,24.4538142 L10.3308377,14.5935261 Z" id="Fill-4"></path>
                        <path d="M24.0732587,21.8187739 C25.9484088,21.8187739 27.9162405,20.3305536 27.9162405,17.228601 L27.9162405,17.0126146 C24.9963936,17.1672858 23.4279388,17.2606993 22.5974281,17.8501671 C21.9839225,18.3141231 21.7061076,18.9356892 21.7061076,19.6476722 C21.7061076,21.1038519 22.6292424,21.8187739 24.0732587,21.8187739 M23.121186,24.7952722 C20.0450861,24.7952722 17.5853684,23.3683095 17.5853684,19.8023434 C17.5853684,17.9114247 18.4158791,16.5486586 20.076958,15.6469671 C21.8305461,14.7189976 23.9516967,14.5001298 27.9162405,14.3454586 L27.9162405,13.5721603 C27.9162405,11.4944722 26.9641678,10.4702078 25.0571458,10.4702078 C23.0893716,10.4702078 22.3224897,11.5557875 22.229923,12.828079 L18.2625027,12.828079 C18.4158791,9.72612644 20.846659,7.55502475 24.9963936,7.55502475 C29.2705092,7.55502475 31.7909792,9.23001458 31.7909792,13.7268315 L31.7909792,20.2984553 C31.7909792,21.0425366 32.0369798,21.2906214 32.8067382,21.2906214 L33.5128104,21.2906214 L33.5128104,24.4538315 L31.6057884,24.4538315 C29.6090764,24.4538315 28.561503,23.9898756 28.2258699,22.1602146 L28.1014313,22.1602146 C27.2101108,23.6484349 25.5490894,24.7952722 23.121186,24.7952722" id="Fill-6"></path>
                        <path d="M43.3880638,10.5023292 C40.6215933,10.5023292 39.6377062,12.9827156 39.6377062,16.1138851 C39.6377062,19.1837393 40.4045881,21.8508953 43.3562494,21.8508953 C45.755215,21.8508953 46.6464779,20.1116512 46.7998543,18.5942715 L50.9205935,18.5942715 C50.6746505,22.6854512 47.4451743,24.8886512 43.3562494,24.8886512 C37.9766847,24.8886512 35.3635906,21.6641258 35.3635906,16.207241 C35.3635906,10.6570003 38.3760041,7.52583085 43.4170017,7.52583085 C47.4162364,7.52583085 50.6138408,9.47806475 50.8598413,13.5400851 L46.6464779,13.5400851 C46.4323493,11.8359359 45.4774001,10.5023292 43.3880638,10.5023292" id="Fill-8"></path>
                        <polygon id="Fill-10" points="54.1754293 24.4538258 54.1754293 0.0233850847 58.2036018 0.0233850847 58.2036018 15.4922902 64.7522445 7.92855797 69.3331128 7.92855797 63.3689804 14.6256359 69.8858086 24.4538258 65.2123736 24.4538258 60.6314477 17.2285953 58.2036018 19.9891071 58.2036018 24.4538258"></polygon>
                        <path d="M78.7788376,10.4089502 C76.4406818,10.4089502 75.3352327,11.8971705 74.9966655,14.5001298 L82.2513803,14.5001298 L82.2513803,14.3162993 C82.1587561,12.1744146 81.0823024,10.4089502 78.7788376,10.4089502 M78.8685277,24.8886281 C73.4282107,24.8886281 70.7224924,21.3839773 70.7224924,16.207218 C70.7224924,11.2143468 73.6423393,7.52586542 78.8395898,7.52586542 C84.1902167,7.52586542 86.5254959,11.369018 86.5254959,15.8658349 L86.5254959,17.3861536 L74.9647936,17.3861536 C75.2107941,20.3626519 76.4724962,21.8800315 78.9611518,21.8800315 C81.1141168,21.8800315 81.820189,20.8587061 82.2224424,19.8023434 L86.3403051,19.8023434 C85.6949852,22.9042959 83.1427008,24.8886281 78.8685277,24.8886281" id="Fill-12"></path>
                        <path d="M94.0376713,17.484621 L94.0376713,24.4578481 L89.9276903,24.4578481 L89.9276903,8.08581085 L93.8846976,8.08581085 L93.8846976,11.9251024 L93.9453348,11.9251024 C95.1431204,8.88371593 97.1980534,7.77934983 100.142006,7.77934983 C101.212821,7.77934983 102.43943,7.99326169 103.146595,8.36046169 L103.146595,11.9251024 C102.257633,11.5868312 101.152184,11.3411092 99.7119649,11.3411092 C96.0003253,11.3411092 94.0376713,13.677082 94.0376713,17.484621" id="Fill-14"></path>
                        <path d="M116.21095,8.08578203 L117.345222,18.4068566 C117.437616,19.0197786 117.469315,19.7280736 117.501072,20.3120668 C117.529952,20.6474566 117.529952,20.9856702 117.561709,21.2950125 L117.775262,21.2950125 C117.775262,20.9856702 117.807019,20.6474566 117.8359,20.3120668 C117.867656,19.7280736 117.959993,18.9908498 118.052329,18.3750464 L119.524306,8.08578203 L123.63141,8.08578203 L125.103386,18.4386668 C125.195723,19.0515888 125.22748,19.7280736 125.319874,20.3120668 C125.351573,20.6474566 125.351573,20.956799 125.380453,21.2950125 L125.594007,21.2950125 C125.625763,20.9856702 125.625763,20.6474566 125.65752,20.3120668 C125.686401,19.7280736 125.718157,19.0197786 125.810494,18.4068566 L126.944766,8.08578203 L130.347639,8.08578203 L127.926122,24.4578769 L123.325463,24.4578769 L122.00646,14.9665176 C121.885243,14.2292939 121.824664,13.4313312 121.73227,12.8155854 C121.700513,12.4483854 121.668756,12.1101142 121.639933,11.7719007 L121.426322,11.7719007 C121.394623,12.1101142 121.362866,12.4483854 121.333986,12.8155854 C121.241649,13.4313312 121.178136,14.2292939 121.088676,14.9665176 L119.769673,24.4578769 L115.169014,24.4578769 L112.71574,8.08578203 L116.21095,8.08578203 Z" id="Fill-16"></path>
                        <path d="M136.754549,16.2877173 C136.754549,19.6963037 137.828242,21.9686563 140.495069,21.9686563 C143.225468,21.9686563 144.235647,19.6037546 144.235647,16.2877173 C144.235647,12.9398698 143.101317,10.6357071 140.495069,10.6357071 C137.828242,10.6357071 136.754549,12.9687986 136.754549,16.2877173 M132.431015,16.2877173 C132.431015,10.849619 135.435547,7.6868122 140.495069,7.6868122 C145.525769,7.6868122 148.559181,10.849619 148.559181,16.2877173 C148.559181,21.6621953 145.462255,24.9175512 140.463313,24.9175512 C135.374967,24.9175512 132.431015,21.6015139 132.431015,16.2877173" id="Fill-18"></path>
                        <path d="M155.598927,17.484621 L155.598927,24.4578481 L151.488946,24.4578481 L151.488946,8.08581085 L155.445954,8.08581085 L155.445954,11.9251024 L155.506591,11.9251024 C156.704319,8.88371593 158.756433,7.77934983 161.700385,7.77934983 C162.774078,7.77934983 164.000686,7.99326169 164.707794,8.36046169 L164.707794,11.9251024 C163.818889,11.5868312 162.71344,11.3411092 161.273221,11.3411092 C157.561581,11.3411092 155.598927,13.677082 155.598927,17.484621" id="Fill-20"></path>
                        <polygon id="Fill-22" points="167.743616 24.4572258 167.743616 0.253259661 171.761203 0.253259661 171.761203 15.5787885 178.292702 8.08513085 182.861604 8.08513085 176.91312 14.7201444 183.412861 24.4572258 178.751623 24.4572258 174.182778 17.298958 171.761203 20.0338834 171.761203 24.4572258"></polygon>
                        <path d="M192.227856,10.6356956 C190.357596,10.6356956 189.283904,11.3411092 189.283904,12.4484142 C189.283904,13.5845905 189.927555,14.044282 191.676598,14.3218142 L194.467577,14.7814481 C198.11576,15.365499 199.434763,16.871699 199.434763,19.358021 C199.434763,23.0152108 196.675541,24.8886108 192.167276,24.8886108 C187.474281,24.8886108 185.173923,23.1684414 184.839153,19.6962922 L188.700889,19.6962922 C188.9462,21.1389295 189.745701,21.9686447 192.167276,21.9686447 C194.40694,21.9686447 195.541269,21.3239702 195.541269,20.0027532 C195.541269,18.8983295 194.897618,18.4993769 193.024424,18.1611058 L190.144043,17.6985329 C187.384763,17.2995803 185.422167,15.9494922 185.422167,12.8762956 C185.422167,9.92740068 187.936078,7.68680068 192.259613,7.68680068 C196.828515,7.68680068 198.883448,9.86666169 199.128816,12.5698346 L195.235322,12.5698346 C195.079414,11.2804278 194.069293,10.6356956 192.227856,10.6356956" id="Fill-24"></path>
                    </g>
                </g>
            </g>
        </g>
    </g>
</svg>