<svg width="294" height="47" viewBox="0 0 294 47" version="1.1" xmlns="http://www.w3.org/2000/svg"><title>A69409ED-45C7-4B0F-A9CB-1CF0E5CA1704</title><desc>Created with sketchtool.</desc><g stroke="none" stroke-width="1" fill="none" fill-rule="evenodd"><g transform="translate(-262.000000, -102.000000)"><g transform="translate(262.000000, 102.000000)"><polygon fill="#89FED4" points="281.29 46.97 293.96 46.97 293.96 0 281.29 0"/><g transform="translate(0.000000, 8.000000)" fill="#FFFFFF"><polygon points="145.16 34.7 152.14 34.7 152.14 27.74 145.16 27.74"/><path d="M254.32 34.77L254.32 1.31 254.32 34.77Z"/><path d="M14.33 21.06C14.33 19.39 14.29 18.02 13.64 17.03 13.01 16.13 11.98 15.66 10.66 15.66 7.25 15.66 5.76 17.85 5.76 21.32L5.76 34.69 0 34.69 0 0.92 5.76 0.92 5.76 15.41 5.8 15.41C6.69 13.35 8.96 11.33 12.71 11.33 17.83 11.33 20.09 13.95 20.09 19.48L20.09 34.69 14.33 34.69 14.33 21.06Z"/><path d="M33.38 31.05C35.99 31.05 38.71 28.99 38.71 24.71L38.71 24.41C34.66 24.62 32.49 24.75 31.34 25.57 30.49 26.21 30.1 27.07 30.1 28.05 30.1 30.06 31.38 31.05 33.38 31.05M32.06 35.17C27.8 35.17 24.39 33.19 24.39 28.26 24.39 25.65 25.54 23.77 27.84 22.52 30.27 21.24 33.22 20.93 38.71 20.72L38.71 19.65C38.71 16.78 37.39 15.36 34.75 15.36 32.02 15.36 30.96 16.86 30.83 18.62L25.33 18.62C25.54 14.34 28.91 11.33 34.66 11.33 40.59 11.33 44.09 13.65 44.09 19.87L44.09 28.95C44.09 29.98 44.43 30.32 45.5 30.32L46.48 30.32 46.48 34.69 43.83 34.69C41.06 34.69 39.61 34.05 39.14 31.52L38.97 31.52C37.73 33.58 35.43 35.17 32.06 35.17"/><path d="M60.17 15.41C56.33 15.41 54.97 18.84 54.97 23.17 54.97 27.41 56.03 31.1 60.13 31.1 63.45 31.1 64.69 28.69 64.9 26.59L70.62 26.59C70.28 32.25 65.8 35.3 60.13 35.3 52.67 35.3 49.04 30.84 49.04 23.29 49.04 15.62 53.22 11.29 60.21 11.29 65.76 11.29 70.19 13.99 70.53 19.61L64.69 19.61C64.39 17.25 63.07 15.41 60.17 15.41"/><polygon points="75.13 34.69 75.13 0.92 80.72 0.92 80.72 22.31 89.8 11.85 96.15 11.85 87.88 21.11 96.92 34.69 90.44 34.69 84.08 24.71 80.72 28.52 80.72 34.69"/><path d="M109.25 15.28C106.01 15.28 104.47 17.34 104 20.93L114.07 20.93 114.07 20.68C113.94 17.72 112.44 15.28 109.25 15.28M109.37 35.3C101.83 35.3 98.08 30.45 98.08 23.29 98.08 16.39 102.13 11.29 109.33 11.29 116.75 11.29 119.99 16.61 119.99 22.82L119.99 24.92 103.96 24.92C104.3 29.04 106.05 31.14 109.5 31.14 112.49 31.14 113.47 29.72 114.03 28.26L119.74 28.26C118.84 32.55 115.3 35.3 109.37 35.3"/><path d="M130.41 25.06L130.41 34.7 124.71 34.7 124.71 12.07 130.2 12.07 130.2 17.38 130.28 17.38C131.94 13.17 134.79 11.64 138.88 11.64 140.36 11.64 142.06 11.94 143.04 12.45L143.04 17.38C141.81 16.91 140.28 16.57 138.28 16.57 133.13 16.57 130.41 19.8 130.41 25.06"/><path d="M161.16 12.07L162.73 26.34C162.86 27.18 162.91 28.16 162.95 28.97 162.99 29.43 162.99 29.9 163.03 30.33L163.33 30.33C163.33 29.9 163.37 29.43 163.41 28.97 163.46 28.16 163.59 27.14 163.71 26.29L165.76 12.07 171.45 12.07 173.49 26.38C173.62 27.23 173.66 28.16 173.79 28.97 173.84 29.43 173.84 29.86 173.88 30.33L174.17 30.33C174.22 29.9 174.22 29.43 174.26 28.97 174.3 28.16 174.34 27.18 174.47 26.34L176.05 12.07 180.77 12.07 177.41 34.7 171.03 34.7 169.2 21.58C169.03 20.56 168.95 19.46 168.82 18.61 168.77 18.1 168.73 17.63 168.69 17.16L168.39 17.16C168.35 17.63 168.31 18.1 168.27 18.61 168.14 19.46 168.05 20.56 167.92 21.58L166.1 34.7 159.72 34.7 156.31 12.07 161.16 12.07Z"/><path d="M189.65 23.41C189.65 28.12 191.14 31.26 194.84 31.26 198.62 31.26 200.02 27.99 200.02 23.41 200.02 18.78 198.45 15.59 194.84 15.59 191.14 15.59 189.65 18.82 189.65 23.41M183.65 23.41C183.65 15.89 187.82 11.52 194.84 11.52 201.81 11.52 206.02 15.89 206.02 23.41 206.02 30.84 201.73 35.34 194.79 35.34 187.74 35.34 183.65 30.75 183.65 23.41"/><path d="M215.78 25.06L215.78 34.7 210.08 34.7 210.08 12.07 215.57 12.07 215.57 17.38 215.66 17.38C217.32 13.17 220.16 11.64 224.24 11.64 225.73 11.64 227.43 11.94 228.42 12.45L228.42 17.38C227.18 16.91 225.65 16.57 223.65 16.57 218.51 16.57 215.78 19.8 215.78 25.06"/><polygon points="232.63 34.7 232.63 1.24 238.2 1.24 238.2 22.43 247.25 12.07 253.59 12.07 245.34 21.24 254.36 34.7 247.89 34.7 241.56 24.8 238.2 28.58 238.2 34.7"/><path d="M266.58 15.59C263.99 15.59 262.5 16.57 262.5 18.1 262.5 19.67 263.39 20.3 265.82 20.69L269.69 21.32C274.75 22.13 276.57 24.21 276.57 27.65 276.57 32.71 272.75 35.3 266.5 35.3 259.99 35.3 256.8 32.92 256.33 28.12L261.69 28.12C262.03 30.11 263.14 31.26 266.5 31.26 269.6 31.26 271.18 30.37 271.18 28.54 271.18 27.01 270.28 26.46 267.68 26L263.69 25.36C259.86 24.8 257.14 22.94 257.14 18.69 257.14 14.61 260.63 11.52 266.62 11.52 272.96 11.52 275.81 14.53 276.15 18.27L270.75 18.27C270.53 16.48 269.13 15.59 266.58 15.59"/></g></g></g></g></svg>