<svg width="212" height="34" viewBox="0 0 212 34" version="1.1" xmlns="http://www.w3.org/2000/svg" xmlns:xlink="http://www.w3.org/1999/xlink">
  <title>
    Group
  </title>
  <desc>
    Created with Sketch.
  </desc>
  <g stroke="none" stroke-width="1" fill="none" fill-rule="evenodd">
    <g transform="translate(-47.000000, -122.000000)">
      <g transform="translate(47.000000, 122.000000)">
        <path d="M183.36 30.93L183.36 6.72 183.36 30.93Z" fill="#F3F3F3"/>
        <polygon fill="#06EF9C" points="202.84 33.98 211.97 33.98 211.97 0 202.84 0"/>
        <polygon fill="#333132" points="104.68 30.89 109.7 30.89 109.7 25.85 104.68 25.85"/>
        <g transform="translate(0.000000, 6.431532)" fill="#333132">
          <path d="M10.33 14.59C10.33 13.39 10.3 12.39 9.84 11.68 9.38 11.03 8.64 10.69 7.69 10.69 5.23 10.69 4.15 12.27 4.15 14.78L4.15 24.45 0 24.45 0 0.02 4.15 0.02 4.15 10.5 4.18 10.5C4.83 9.01 6.46 7.56 9.16 7.56 12.85 7.56 14.48 9.45 14.48 13.45L14.48 24.45 10.33 24.45 10.33 14.59Z"/>
          <path d="M24.07 21.82C25.95 21.82 27.92 20.33 27.92 17.23L27.92 17.01C25 17.17 23.43 17.26 22.6 17.85 21.98 18.31 21.71 18.94 21.71 19.65 21.71 21.1 22.63 21.82 24.07 21.82M23.12 24.8C20.05 24.8 17.59 23.37 17.59 19.8 17.59 17.91 18.42 16.55 20.08 15.65 21.83 14.72 23.95 14.5 27.92 14.35L27.92 13.57C27.92 11.49 26.96 10.47 25.06 10.47 23.09 10.47 22.32 11.56 22.23 12.83L18.26 12.83C18.42 9.73 20.85 7.56 25 7.56 29.27 7.56 31.79 9.23 31.79 13.73L31.79 20.3C31.79 21.04 32.04 21.29 32.81 21.29L33.51 21.29 33.51 24.45 31.61 24.45C29.61 24.45 28.56 23.99 28.23 22.16L28.1 22.16C27.21 23.65 25.55 24.8 23.12 24.8"/>
          <path d="M43.39 10.5C40.62 10.5 39.64 12.98 39.64 16.11 39.64 19.18 40.4 21.85 43.36 21.85 45.76 21.85 46.65 20.11 46.8 18.59L50.92 18.59C50.67 22.69 47.45 24.89 43.36 24.89 37.98 24.89 35.36 21.66 35.36 16.21 35.36 10.66 38.38 7.53 43.42 7.53 47.42 7.53 50.61 9.48 50.86 13.54L46.65 13.54C46.43 11.84 45.48 10.5 43.39 10.5"/>
          <polygon points="54.18 24.45 54.18 0.02 58.2 0.02 58.2 15.49 64.75 7.93 69.33 7.93 63.37 14.63 69.89 24.45 65.21 24.45 60.63 17.23 58.2 19.99 58.2 24.45"/>
          <path d="M78.78 10.41C76.44 10.41 75.34 11.9 75 14.5L82.25 14.5 82.25 14.32C82.16 12.17 81.08 10.41 78.78 10.41M78.87 24.89C73.43 24.89 70.72 21.38 70.72 16.21 70.72 11.21 73.64 7.53 78.84 7.53 84.19 7.53 86.53 11.37 86.53 15.87L86.53 17.39 74.96 17.39C75.21 20.36 76.47 21.88 78.96 21.88 81.11 21.88 81.82 20.86 82.22 19.8L86.34 19.8C85.69 22.9 83.14 24.89 78.87 24.89"/>
          <path d="M94.04 17.48L94.04 24.46 89.93 24.46 89.93 8.09 93.88 8.09 93.88 11.93 93.95 11.93C95.14 8.88 97.2 7.78 100.14 7.78 101.21 7.78 102.44 7.99 103.15 8.36L103.15 11.93C102.26 11.59 101.15 11.34 99.71 11.34 96 11.34 94.04 13.68 94.04 17.48"/>
          <path d="M116.21 8.09L117.35 18.41C117.44 19.02 117.47 19.73 117.5 20.31 117.53 20.65 117.53 20.99 117.56 21.3L117.78 21.3C117.78 20.99 117.81 20.65 117.84 20.31 117.87 19.73 117.96 18.99 118.05 18.38L119.52 8.09 123.63 8.09 125.1 18.44C125.2 19.05 125.23 19.73 125.32 20.31 125.35 20.65 125.35 20.96 125.38 21.3L125.59 21.3C125.63 20.99 125.63 20.65 125.66 20.31 125.69 19.73 125.72 19.02 125.81 18.41L126.94 8.09 130.35 8.09 127.93 24.46 123.33 24.46 122.01 14.97C121.89 14.23 121.82 13.43 121.73 12.82 121.7 12.45 121.67 12.11 121.64 11.77L121.43 11.77C121.39 12.11 121.36 12.45 121.33 12.82 121.24 13.43 121.18 14.23 121.09 14.97L119.77 24.46 115.17 24.46 112.72 8.09 116.21 8.09Z"/>
          <path d="M136.75 16.29C136.75 19.7 137.83 21.97 140.5 21.97 143.23 21.97 144.24 19.6 144.24 16.29 144.24 12.94 143.1 10.64 140.5 10.64 137.83 10.64 136.75 12.97 136.75 16.29M132.43 16.29C132.43 10.85 135.44 7.69 140.5 7.69 145.53 7.69 148.56 10.85 148.56 16.29 148.56 21.66 145.46 24.92 140.46 24.92 135.37 24.92 132.43 21.6 132.43 16.29"/>
          <path d="M155.6 17.48L155.6 24.46 151.49 24.46 151.49 8.09 155.45 8.09 155.45 11.93 155.51 11.93C156.7 8.88 158.76 7.78 161.7 7.78 162.77 7.78 164 7.99 164.71 8.36L164.71 11.93C163.82 11.59 162.71 11.34 161.27 11.34 157.56 11.34 155.6 13.68 155.6 17.48"/>
          <polygon points="167.74 24.46 167.74 0.25 171.76 0.25 171.76 15.58 178.29 8.09 182.86 8.09 176.91 14.72 183.41 24.46 178.75 24.46 174.18 17.3 171.76 20.03 171.76 24.46"/>
          <path d="M192.23 10.64C190.36 10.64 189.28 11.34 189.28 12.45 189.28 13.58 189.93 14.04 191.68 14.32L194.47 14.78C198.12 15.37 199.43 16.87 199.43 19.36 199.43 23.02 196.68 24.89 192.17 24.89 187.47 24.89 185.17 23.17 184.84 19.7L188.7 19.7C188.95 21.14 189.75 21.97 192.17 21.97 194.41 21.97 195.54 21.32 195.54 20 195.54 18.9 194.9 18.5 193.02 18.16L190.14 17.7C187.38 17.3 185.42 15.95 185.42 12.88 185.42 9.93 187.94 7.69 192.26 7.69 196.83 7.69 198.88 9.87 199.13 12.57L195.24 12.57C195.08 11.28 194.07 10.64 192.23 10.64"/>
        </g>
      </g>
    </g>
  </g>
</svg>
