<svg width="972" height="619" viewBox="0 0 972 619" version="1.1" xmlns="http://www.w3.org/2000/svg"><title>Group 16</title><desc>Created with Sketch.</desc><g stroke="none" stroke-width="1" fill="none" fill-rule="evenodd" opacity="0.03"><g transform="translate(-948.000000, -313.000000)" fill="#333132"><g transform="translate(948.000000, 313.000000)"><path d="M375.86 611.56L271.53 611.56 271.53 359.32 105.31 359.32 105.31 611.56 0.98 611.56 0.98 47.89 111.5 47.89C112.68 49.07 113.27 50.54 113.27 52.31 113.27 53.49 112.9 54.74 112.16 56.07 111.42 57.39 110.61 59.08 109.73 61.15 108.84 63.21 107.96 65.71 107.08 68.66 106.19 71.6 105.6 75.28 105.31 79.7L105.31 274.95 271.53 274.95 271.53 47.89 382.05 47.89C383.23 49.07 383.82 50.54 383.82 52.31 383.82 53.49 383.45 54.74 382.71 56.07 381.97 57.39 381.16 59.08 380.28 61.15 379.4 63.21 378.51 65.71 377.63 68.66 376.74 71.6 376.15 75.28 375.86 79.7L375.86 611.56ZM655.69 0.19C664.24 0.19 672.34 1.73 680.01 4.82 687.67 7.92 694.37 12.04 700.12 17.19 705.87 22.35 710.44 28.46 713.83 35.52 717.21 42.59 718.91 50.1 718.91 58.05 718.91 66.01 717.21 73.51 713.83 80.58 710.44 87.65 705.87 93.83 700.12 99.14 694.37 104.44 687.67 108.56 680.01 111.5 672.34 114.45 664.24 115.92 655.69 115.92 647.15 115.92 638.97 114.45 631.16 111.5 623.35 108.56 616.57 104.44 610.82 99.14 605.07 93.83 600.51 87.65 597.12 80.58 593.73 73.51 592.03 66.01 592.03 58.05 592.03 50.99 593.36 43.99 596.01 37.07 598.66 30.15 602.64 23.97 607.95 18.52 613.25 13.07 619.88 8.65 627.84 5.27 635.8 1.88 645.08 0.19 655.69 0.19L655.69 0.19ZM506.27 189.25L704.32 189.25 704.32 532.93 797.6 532.93 797.6 611.56 501.85 611.56 501.85 532.93 603.97 532.93 603.97 267.88 506.27 267.88 506.27 189.25ZM986.58 489.64C996.9 489.64 1006.4 491.55 1015.1 495.38 1023.79 499.21 1031.38 504.21 1037.86 510.4 1044.35 516.58 1049.36 523.58 1052.9 531.38 1056.43 539.19 1058.2 547.21 1058.2 555.46 1058.2 564.29 1056.28 572.61 1052.45 580.42 1048.62 588.22 1043.39 595.14 1036.76 601.18 1030.13 607.21 1022.47 611.93 1013.77 615.31 1005.08 618.7 996.01 620.39 986.58 620.39 977.15 620.39 968.24 618.7 959.84 615.31 951.44 611.93 944.07 607.29 937.73 601.4 931.4 595.51 926.39 588.66 922.7 580.86 919.02 573.05 917.18 564.59 917.18 555.46 917.18 546.62 919.02 538.23 922.7 530.28 926.39 522.33 931.4 515.33 937.73 509.29 944.07 503.26 951.44 498.47 959.84 494.94 968.24 491.4 977.15 489.64 986.58 489.64L986.58 489.64ZM988.79 4.6C1008.25 4.6 1023.64 11.38 1034.99 24.92 1046.34 38.47 1052.01 60.56 1052.01 91.18 1052.01 97.07 1051.72 104 1051.13 111.95 1050.54 119.9 1049.87 128.29 1049.14 137.13 1048.4 145.96 1047.59 154.65 1046.71 163.19 1045.82 171.73 1045.23 179.39 1044.94 186.16L1028.58 432.21 946.8 432.21 934.42 186.16C933.83 179.09 933.09 170.92 932.21 161.64 931.32 152.37 930.29 142.94 929.11 133.37 927.93 123.8 926.98 114.52 926.24 105.54 925.5 96.56 925.14 88.83 925.14 82.35 925.14 57.32 930.66 38.1 941.71 24.7 952.76 11.3 968.46 4.6 988.79 4.6L988.79 4.6Z"/></g></g></g></svg>