<svg width="367px" height="693px" viewBox="0 0 367 693" version="1.1" xmlns="http://www.w3.org/2000/svg" xmlns:xlink="http://www.w3.org/1999/xlink"><title>197C65D7-DC6C-4342-8BBA-ABE7ADC708F2</title><desc>Created with sketchtool.</desc><defs><rect id="path-1" x="137.764168" y="292.360347" width="206.338074" height="211.310405"/><mask id="mask-2" maskContentUnits="userSpaceOnUse" maskUnits="objectBoundingBox" x="0" y="0" width="206.338074" height="211.310405" fill="white"><use xlink:href="#path-1"/></mask><linearGradient x1="13.1396851%" y1="88.7766325%" x2="64.6323056%" y2="23.191084%" id="linearGradient-3"><stop stop-color="#07EF9C" offset="0%"/><stop stop-color="#174FEE" offset="100%"/></linearGradient><rect id="path-4" x="157.677708" y="339.081209" width="207.411285" height="212.409478"/><mask id="mask-5" maskContentUnits="userSpaceOnUse" maskUnits="objectBoundingBox" x="0" y="0" width="207.411285" height="212.409478" fill="white"><use xlink:href="#path-4"/></mask></defs><g id="Homepage" stroke="none" stroke-width="1" fill="none" fill-rule="evenodd"><g transform="translate(-311.000000, -1796.000000)" id="Group-19"><g transform="translate(312.000000, 1743.000000)"><g id="Group"><g id="Group-Copy-5" transform="translate(45.146172, 240.542617) rotate(-270.000000) translate(-45.146172, -240.542617) translate(39.146172, 200.042617)" stroke="#10E3A5" stroke-width="2" stroke-linecap="square"><path d="M9.27051672 77.846739L9.27051672 2.23585414" id="Line-Copy-13"/><path d="M1.85410334 77.846739L1.85410334 2.23585414" id="Line-Copy-14"/></g><path d="M31.8006392 240.69818L31.8006392 192.804106" id="Line-Copy-14" stroke="#10E3A5" stroke-width="2" stroke-linecap="square" transform="translate(31.800639, 216.751143) rotate(-90.000000) translate(-31.800639, -216.751143) "/><rect id="Rectangle-174-Copy-4" stroke="#10E3A5" stroke-width="4" stroke-linecap="square" transform="translate(5.321124, 216.751143) rotate(-90.000000) translate(-5.321124, -216.751143) " x="4.20866165" y="215.641971" width="2.22492401" height="2.21834526"/><path d="M64.5283301 273.229623L-52.2857143 274.823621" id="Line-Copy-16" stroke="#10E3A5" stroke-width="2" stroke-linecap="square" transform="translate(6.121308, 274.026622) rotate(-90.000000) translate(-6.121308, -274.026622) "/><path d="M58.727779 384.602821L-45.2929778 384.602821" id="Line-Copy-20" stroke="#757575" stroke-linecap="square" opacity="0.3" transform="translate(6.992737, 384.676961) rotate(-90.000000) translate(-6.992737, -384.676961) "/><rect id="Rectangle-174-Copy-4" stroke="#2C53F0" stroke-width="2" stroke-linecap="square" transform="translate(7.784314, 438.057353) rotate(-90.000000) translate(-7.784314, -438.057353) " x="6.67185219" y="436.948181" width="2.22492401" height="2.21834526"/><rect id="Rectangle-174-Copy-7" stroke="#2C53F0" stroke-width="2" stroke-linecap="square" transform="translate(7.784314, 436.945262) rotate(-90.000000) translate(-7.784314, -436.945262) " x="6.67185219" y="435.836089" width="2.22492401" height="2.21834526"/><use id="Rectangle-147-Copy-4" stroke="#2C53F0" mask="url(#mask-2)" stroke-width="4" stroke-dasharray="2,2,2,2" fill="#FFFFFF" xlink:href="#path-1"/><path d="M325.777865 725.926916L325.777865 551.921813" id="Line-Copy-13" stroke="#757575" stroke-linecap="square" opacity="0.3"/><path d="M285.269959 681.683725L285.269959 550.657722" id="Line-Copy-13" stroke="#757575" stroke-linecap="square" opacity="0.3"/><path d="M249.722205 602.958017L249.722205 551.921813" id="Line-Copy-14" stroke="#757575" stroke-linecap="square" opacity="0.3"/><path d="M216.654527 675.638927L216.654527 551.921813" id="Line-Copy-13" stroke="#757575" stroke-linecap="square" opacity="0.3"/><path d="M183.586849 725.926916L183.586849 551.921813" id="Line-Copy-14" stroke="#757575" stroke-linecap="square" opacity="0.3"/><polygon id="Rectangle-174-Copy-3" stroke="#10E3A5" stroke-width="2" stroke-linecap="square" points="195.160537 355.219775 284.443267 355.219775 284.443267 444.171459 217.84747 444.171459 195.160537 444.171459"/><path d="M243.935362 294.707416L243.935362 258.831248" id="Line-Copy-17" stroke="#D6D6D6" stroke-linecap="square"/><path d="M198.467304 293.670585L198.467304 222.542183" id="Line-Copy-14" stroke="#757575" stroke-linecap="square" opacity="0.3"/><rect id="Rectangle-174-Copy-4" stroke="#2C53F0" stroke-width="2" stroke-linecap="square" fill="#2C53F0" x="196.81392" y="216.48636" width="3.3067678" height="3.29450681"/><path d="M185.240233 294.661538L185.240233 244.56336" id="Line-Copy-15" stroke="#757575" stroke-linecap="square" opacity="0.3"/><rect id="Rectangle-174-Copy-7" stroke="#2C53F0" stroke-width="2" stroke-linecap="square" fill="#2C53F0" x="183.586849" y="239.608595" width="3.3067678" height="3.29450681"/><rect id="Rectangle-174-Copy-7" stroke="#2C53F0" stroke-width="2" stroke-linecap="square" fill="#2C53F0" x="243.10867" y="256.124478" width="1.6533839" height="1.6472534"/><path d="M257.162433 294.707416L257.162433 192.524981" id="Line-Copy-18" stroke="#D6D6D6" stroke-linecap="square"/><rect id="Rectangle-174-Copy-7" stroke="#2C53F0" stroke-width="2" stroke-linecap="square" fill="#2C53F0" x="254.682357" y="190.060947" width="3.3067678" height="3.29450681"/><path d="M102.571038 369.313328L102.571038 298.184926" id="Line-Copy-14" stroke="#757575" stroke-linecap="square" opacity="0.3" transform="translate(102.571038, 333.749127) rotate(-90.000000) translate(-102.571038, -333.749127) "/><path d="M114.971417 371.460393L114.971417 321.362215" id="Line-Copy-15" stroke="#757575" stroke-linecap="square" opacity="0.3" transform="translate(114.971417, 346.961834) rotate(-90.000000) translate(-114.971417, -346.961834) "/><rect id="Rectangle-174-Copy-7" stroke="#2C53F0" stroke-width="2" stroke-linecap="square" fill="#2C53F0" transform="translate(86.032860, 346.961834) rotate(-90.000000) translate(-86.032860, -346.961834) " x="84.3794757" y="345.31458" width="3.3067678" height="3.29450681"/><rect id="Rectangle-174-Copy-8" stroke="#2C53F0" stroke-width="2" stroke-linecap="square" fill="#2C53F0" transform="translate(64.538869, 333.749127) rotate(-90.000000) translate(-64.538869, -333.749127) " x="62.885485" y="332.101874" width="3.3067678" height="3.29450681"/><path d="M73.4714816 502.761661L73.4714816 372.726611" id="Line-Copy-14" stroke="#757575" stroke-linecap="square" opacity="0.3" transform="translate(73.471482, 437.799189) rotate(-90.000000) translate(-73.471482, -437.799189) "/><path d="M89.343967 501.110073L89.343967 399.812659" id="Line-Copy-15" stroke="#757575" stroke-linecap="square" opacity="0.3" transform="translate(89.343967, 451.011895) rotate(-90.000000) translate(-89.343967, -451.011895) "/><path d="M309.244026 294.661538L309.244026 244.56336" id="Line-Copy-15" stroke="#757575" stroke-linecap="square" opacity="0.3"/><path d="M322.471097 290.367409L322.471097 219.239007" id="Line-Copy-14" stroke="#757575" stroke-linecap="square" opacity="0.3"/><rect id="Rectangle-174-Copy-4" stroke="#2C53F0" stroke-width="2" stroke-linecap="square" fill="#2C53F0" x="320.817713" y="213.183183" width="3.3067678" height="3.29450681"/><rect id="Rectangle-174-Copy-7" stroke="#2C53F0" stroke-width="2" stroke-linecap="square" fill="#2C53F0" x="307.590642" y="239.608595" width="3.3067678" height="3.29450681"/><rect id="Rectangle-147-Copy-5" fill="url(#linearGradient-3)" opacity="0.1" x="125.718413" y="284.201479" width="201.712836" height="206.573708"/><rect id="Rectangle-147-Copy-5" stroke="#2C53F0" stroke-width="2" stroke-linecap="square" x="140.598868" y="295.762597" width="200.059452" height="204.880481"/><use id="Rectangle-147-Copy-4" stroke="#2C53F0" mask="url(#mask-5)" stroke-width="4" stroke-dasharray="2,2,2,2" fill="#FFFFFF" xlink:href="#path-4"/><rect id="Rectangle-147-Copy-5" stroke="#2C53F0" stroke-width="2" stroke-linecap="square" x="160.439475" y="342.007069" width="201.712836" height="206.573708"/><rect id="Rectangle-147-Copy-11" fill="url(#linearGradient-3)" opacity="0.1" x="150.519171" y="337.052304" width="201.712836" height="206.573708"/><rect id="Rectangle-147-Copy-6" stroke="#2C53F0" stroke-width="2" stroke-linecap="square" fill="#FFFFFF" x="170.359778" y="718.569197" width="28.1075263" height="26.4254125"/><rect id="Rectangle-147-Copy-9" stroke="#2C53F0" stroke-width="2" stroke-linecap="square" fill="#2C53F0" x="215.001143" y="677.27949" width="3.3067678" height="3.30317656"/><rect id="Rectangle-147-Copy-10" stroke="#2C53F0" stroke-width="2" stroke-linecap="square" fill="#2C53F0" x="248.068821" y="599.654841" width="3.3067678" height="3.30317656"/><rect id="Rectangle-147-Copy-8" stroke="#2C53F0" stroke-width="2" stroke-linecap="square" fill="#FFFFFF" x="272.86958" y="677.27949" width="24.8007585" height="26.4254125"/><polygon id="Rectangle-174-Copy-6" stroke="#10E3A5" stroke-width="2" stroke-linecap="square" fill="#FFFFFF" points="216.654527 401.464247 305.937258 401.464247 305.937258 490.415931 239.341461 490.415931 216.654527 490.415931"/><path d="M240.628594 402.290041L240.628594 436.973395" id="Line" stroke="#10E3A5" stroke-width="2" stroke-linecap="square" fill="#FFFFFF"/><path d="M257.162433 402.290041L257.162433 436.973395" id="Line-Copy-11" stroke="#10E3A5" stroke-width="2" stroke-linecap="square" fill="#FFFFFF"/><path d="M283.616575 455.140866L283.616575 489.82422" id="Line-Copy-12" stroke="#10E3A5" stroke-width="2" stroke-linecap="square" fill="#FFFFFF"/><path d="M238.97521 436.973395L228.228214 436.973395" id="Line-Copy-3" stroke="#10E3A5" stroke-width="2" stroke-linecap="square" fill="#FFFFFF"/><path d="M231.560791 413.851159L218.307911 413.851159" id="Line-Copy-26" stroke="#10E3A5" stroke-width="2" stroke-linecap="square" fill="#FFFFFF"/><path d="M239.827711 425.412277L226.574831 425.412277" id="Line-Copy-27" stroke="#10E3A5" stroke-width="2" stroke-linecap="square" fill="#FFFFFF"/><path d="M264.654128 422.1091L257.989125 422.1091" id="Line-Copy-28" stroke="#10E3A5" stroke-width="2" stroke-linecap="square" fill="#FFFFFF"/><path d="M256.387209 432.01863L248.027843 432.01863" id="Line-Copy-29" stroke="#10E3A5" stroke-width="2" stroke-linecap="square" fill="#FFFFFF"/><path d="M261.34736 455.140866L252.987995 455.140866" id="Line-Copy-30" stroke="#10E3A5" stroke-width="2" stroke-linecap="square" fill="#FFFFFF"/><path d="M281.187967 412.199571L276.108622 412.199571" id="Line-Copy-32" stroke="#10E3A5" stroke-width="2" stroke-linecap="square" fill="#FFFFFF"/><path d="M241.455286 451.837689L218.307911 451.837689" id="Line-Copy-6" stroke="#10E3A5" stroke-width="2" stroke-linecap="square" fill="#FFFFFF"/><path d="M297.738758 436.973395L292.710187 436.973395" id="Line-Copy-10" stroke="#10E3A5" stroke-width="2" stroke-linecap="square" fill="#FFFFFF"/><path d="M305.937258 415.502747L300.908687 415.502747" id="Line-Copy-24" stroke="#10E3A5" stroke-width="2" stroke-linecap="square" fill="#FFFFFF"/><path d="M249.722205 476.611514L228.228214 476.611514" id="Line-Copy-9" stroke="#10E3A5" stroke-width="2" stroke-linecap="square" fill="#FFFFFF"/><path d="M238.148518 465.050396L216.654527 465.050396" id="Line-Copy-25" stroke="#10E3A5" stroke-width="2" stroke-linecap="square" fill="#FFFFFF"/><path d="M292.751418 468.353572L284.443267 468.353572" id="Line-Copy-19" stroke="#10E3A5" stroke-width="2" stroke-linecap="square" fill="#FFFFFF"/><path d="M299.346668 455.140866L284.443267 455.140866" id="Line-Copy-21" stroke="#10E3A5" stroke-width="2" stroke-linecap="square" fill="#FFFFFF"/><path d="M272.903966 479.91469L262.949276 479.91469" id="Line-Copy-31" stroke="#10E3A5" stroke-width="2" stroke-linecap="square" fill="#FFFFFF"/><path d="M291.883495 402.290041L291.883495 436.973395" id="Line-Copy-2" stroke="#10E3A5" stroke-width="2" stroke-linecap="square" fill="#FFFFFF"/><path d="M270.389504 402.290041L270.389504 464.224602" id="Line-Copy" stroke="#10E3A5" stroke-width="2" stroke-linecap="square" fill="#FFFFFF"/><path d="M281.963191 402.290041L281.963191 444.413638" id="Line-Copy-23" stroke="#10E3A5" stroke-width="2" stroke-linecap="square" fill="#FFFFFF"/><path d="M262.122584 467.511903L262.122584 488.998426" id="Line-Copy-22" stroke="#10E3A5" stroke-width="2" stroke-linecap="square" fill="#FFFFFF"/><path d="M252.202281 449.360307L252.202281 487.346837" id="Line-Copy-4" stroke="#10E3A5" stroke-width="2" stroke-linecap="square" fill="#FFFFFF"/><g id="Group-5" transform="translate(128.524586, 120.654774) rotate(29.000000) translate(-128.524586, -120.654774) translate(67.524586, 17.654774)"><polygon id="Rectangle-174" stroke="#10E3A5" stroke-width="2" stroke-linecap="square" points="34.4863222 180.158824 67.7044377 180.158824 67.7044377 205.514511 42.9271168 205.514511 34.4863222 205.514511"/><path d="M58.2949371 180.158824L31.1489362 180.158824 31.1489362 205.514511 56.8951883 205.514511 58.2949371 205.514511 58.2949371 180.158824Z" id="Combined-Shape" fill="url(#linearGradient-3)" opacity="0.1"/><path d="M77.8723404 155.971422L77.8723404 179.532579 38.0427556 179.532579 24.4741641 179.532579 24.4741641 155.971422C9.79401212 146.978945-1.20792265e-12 130.79347-1.20792265e-12 112.321242 -1.20792265e-12 84.068448 22.9110454 61.1650329 51.1732523 61.1650329 79.4354591 61.1650329 102.346505 84.068448 102.346505 112.321242 102.346505 130.79347 92.5524924 146.978945 77.8723629 155.971408Z" id="Combined-Shape" stroke="#10E3A5" stroke-width="2" stroke-linecap="square"/><path d="M62.8541033 65.840048C59.1023327 64.9643761 55.1918883 64.5013074 51.1732523 64.5013074 22.9110454 64.5013074-8.81072992e-13 87.4047225-8.81072992e-13 115.657517 -8.81072992e-13 134.129744 9.79401212 150.31522 24.4741416 159.307683L24.4741641 182.868854 38.0427556 182.868854 54.620162 182.868854 47.8358663 182.868854 47.8358663 159.307697C33.1557143 150.31522 23.3617021 134.129744 23.3617021 115.657517 23.3617021 91.4220201 40.2204743 71.1227893 62.8541033 65.840048Z" id="Combined-Shape" fill="url(#linearGradient-3)" opacity="0.1"/><g id="Group-16" transform="translate(47.835866, 118.938629)" stroke="#10E3A5" stroke-width="2"><rect id="Rectangle-174-Copy-4" stroke-linecap="square" transform="translate(5.559390, 1.167254) rotate(-90.000000) translate(-5.559390, -1.167254) " x="4.44692818" y="0.0580815345" width="2.22492401" height="2.21834526"/><path d="M6.67477204 59.5879234L6.67477204 21.1849013" id="Path-388"/><path d="M7.29238066 21.6063557C7.29238066 21.6063557 0.030869373 17.9894068 0.00009840577 9.49316966 -0.0306725614 0.996932541 7.71134688 0.0551626591 7.71134688 0.0551626591" id="Path-389" transform="translate(3.855677, 10.830759) scale(1, -1) translate(-3.855677, -10.830759) "/></g><g id="Group-2" transform="translate(47.835866, 118.938629)" stroke="#10E3A5" stroke-width="2"><rect id="Rectangle-174-Copy-4" stroke-linecap="square" transform="translate(1.109542, 1.167254) rotate(-90.000000) translate(-1.109542, -1.167254) " x="-0.00291984778" y="0.0580815345" width="2.22492401" height="2.21834526"/><path d="M1.11246201 59.5879234L1.11246201 21.1849013" id="Path-388" transform="translate(1.112462, 40.386412) scale(-1, 1) translate(-1.112462, -40.386412) "/><path d="M7.29238066 21.6332103C7.29238066 21.6332103 0.030869373 18.0162613 0.0000984057695 9.52002421 -0.0306725614 1.02378709 7.16524954 0.0551626591 7.16524954 0.0551626591" id="Path-389" transform="translate(3.646190, 10.844186) scale(-1, -1) translate(-3.646190, -10.844186) "/></g><path d="M93.5823773 61.621303L110.387274 40.1191795" id="Path-401" stroke="#10E3A5" stroke-width="2" stroke-linecap="square"/><path d="M78.806599 51.2130693L93.6728902 28.3286124" id="Path-401-Copy-2" stroke="#10E3A5" stroke-width="2" stroke-linecap="square"/><path d="M96.7841945 22.8844569L111.650486 5.40012479e-13" id="Path-401-Copy-3" stroke="#10E3A5" stroke-width="2" stroke-linecap="square"/><path d="M106.796353 73.7870141L121.258359 58.9408499" id="Path-401-Copy" stroke="#10E3A5" stroke-width="2" stroke-linecap="square"/></g><ellipse id="Oval-139" stroke="#10E3A5" stroke-width="2" stroke-linecap="square" fill="#FFFFFF" cx="6.11854103" cy="329.628431" rx="6.11854103" ry="6.11650329"/><ellipse id="Oval-139-Copy-2" stroke="#10E3A5" stroke-width="2" stroke-linecap="square" fill="#FFFFFF" cx="98.4528875" cy="149.469607" rx="9.45592705" ry="9.45277781"/><ellipse id="Oval-139-Copy" stroke="#10E3A5" stroke-width="2" stroke-linecap="square" fill="#FFFFFF" cx="54.5106383" cy="217.863235" rx="5.56231003" ry="5.56045754"/><ellipse id="Oval-139-Copy-3" stroke="#10E3A5" stroke-width="2" stroke-linecap="square" fill="#FFFFFF" cx="88.9969605" cy="240.105065" rx="8.89969605" ry="8.89673206"/></g></g></g></g></svg>