<svg width="304px" height="192px" viewBox="0 0 304 192" version="1.1" xmlns="http://www.w3.org/2000/svg" xmlns:xlink="http://www.w3.org/1999/xlink">
  <title>
    C5D39105-6255-4E5E-AD10-1E146EC637BB
  </title>
  <desc>
    Created with sketchtool.
  </desc>
  <defs>
    <rect id="path-1" x="24.6001909" y="78.8531303" width="100.105714" height="102.540292"/>
    <mask id="mask-2" maskContentUnits="userSpaceOnUse" maskUnits="objectBoundingBox" x="0" y="0" width="100.105714" height="102.540292" fill="white">
      <use xlink:href="#path-1"/>
    </mask>
    <linearGradient x1="13.1396851%" y1="88.7766325%" x2="64.6323056%" y2="23.191084%" id="linearGradient-3">
      <stop stop-color="#07EF9C" offset="0%"/>
      <stop stop-color="#174FEE" offset="100%"/>
    </linearGradient>
    <rect id="path-4" x="1.41301802" y="88.5129295" width="100.626386" height="103.073627"/>
    <mask id="mask-5" maskContentUnits="userSpaceOnUse" maskUnits="objectBoundingBox" x="0" y="0" width="100.626386" height="103.073627" fill="white">
      <use xlink:href="#path-4"/>
    </mask>
  </defs>
  <g id="Homepage" stroke="none" stroke-width="1" fill="none" fill-rule="evenodd">
    <g id="Homepage---Mobile" transform="translate(-30.000000, -1176.000000)">
      <g id="Group-17" transform="translate(30.000000, 1177.000000)">
        <g id="Group-14" transform="translate(84.122119, 41.757336) rotate(-270.000000) translate(-84.122119, -41.757336) translate(42.622119, 14.757336)" stroke-linecap="square">
          <path d="M53.464592 74.9395745L53.464592 20.8137356" id="Line-Copy-13" stroke="#757575" opacity="0.3" transform="translate(53.464592, 47.876655) rotate(-270.000000) translate(-53.464592, -47.876655) "/>
          <path d="M69.4639924 43.7292685L69.4639924 22.6466033" id="Line-Copy-14" stroke="#757575" opacity="0.3" transform="translate(69.463992, 33.187936) rotate(-270.000000) translate(-69.463992, -33.187936) "/>
          <path d="M44.0652371 41.8001742L44.0652371-30.0800017" id="Line-Copy-14" stroke="#757575" opacity="0.3" transform="translate(44.065237, 5.860086) rotate(-270.000000) translate(-44.065237, -5.860086) "/>
          <rect id="Rectangle-147-Copy-6" stroke="#2C53F0" stroke-width="2" fill="#FFFFFF" transform="translate(5.706499, 6.201684) rotate(-270.000000) translate(-5.706499, -6.201684) " x="-0.100669118" y="0.7436166" width="11.6143361" height="10.9161356"/>
          <rect id="Rectangle-147-Copy-10" stroke="#2C53F0" stroke-width="2" fill="#2C53F0" transform="translate(59.604918, 33.187936) rotate(-270.000000) translate(-59.604918, -33.187936) " x="58.921722" y="32.5056774" width="1.36639248" height="1.36451695"/>
          <rect id="Rectangle-147-Copy-8" stroke="#2C53F0" stroke-width="2" fill="#FFFFFF" transform="translate(22.762961, 47.876655) rotate(-270.000000) translate(-22.762961, -47.876655) " x="17.6389889" y="42.4185873" width="10.2479436" height="10.9161356"/>
        </g>
        <rect id="Rectangle-174-Copy-7" stroke="#2C53F0" stroke-width="2" stroke-linecap="square" transform="translate(45.722751, 53.652694) rotate(-360.000000) translate(-45.722751, -53.652694) " x="45.1830357" y="53.1144578" width="1.07943048" height="1.07647218"/>
        <use id="Rectangle-147-Copy-4" stroke="#2C53F0" mask="url(#mask-2)" stroke-width="4" stroke-dasharray="2,2,2,2" fill="#FFFFFF" transform="translate(74.653048, 130.123276) rotate(-270.000000) translate(-74.653048, -130.123276) " xlink:href="#path-1"/>
        <polygon id="Rectangle-174-Copy-3" stroke="#10E3A5" stroke-width="2" stroke-linecap="square" transform="translate(73.838190, 129.574144) rotate(-270.000000) translate(-73.838190, -129.574144) " points="52.1802596 107.991838 95.4961213 107.991838 95.4961213 151.15645 63.1869133 151.15645 52.1802596 151.15645"/>
        <g id="Group-12" transform="translate(53.227087, 73.151302) rotate(-90.000000) translate(-53.227087, -73.151302) translate(42.727087, 72.151302)" stroke-linecap="square">
          <path d="M10.1779922 9.64055815L10.1779922-7.76867788" id="Line-Copy-17" stroke="#D6D6D6" transform="translate(10.177992, 0.935940) rotate(-270.000000) translate(-10.177992, -0.935940) "/>
          <rect id="Rectangle-174-Copy-7" stroke="#2C53F0" stroke-width="2" fill="#2C53F0" transform="translate(19.791578, 0.935940) rotate(-270.000000) translate(-19.791578, -0.935940) " x="19.3905052" y="0.536267806" width="0.802145586" height="0.799344667"/>
        </g>
        <path d="M164.382557 178.228987L164.382557 98.4757588" id="Line-Copy-18" stroke="#D6D6D6" stroke-linecap="square" transform="translate(164.679339, 138.297980) rotate(-270.000000) translate(-164.679339, -138.297980) "/>
        <rect id="Rectangle-174-Copy-7" stroke="#2C53F0" stroke-width="2" stroke-linecap="square" fill="#2C53F0" transform="translate(151.232996, 137.599642) rotate(-270.000000) translate(-151.232996, -137.599642) " x="150.43085" y="136.800297" width="1.60429117" height="1.59868933"/>
        <g id="Group-13" transform="translate(143.500000, 97.500000) rotate(-270.000000) translate(-143.500000, -97.500000) translate(139.000000, 78.000000)" stroke-linecap="square">
          <path d="M7.82320535 37.2203619L7.82320535 2.70465913" id="Line-Copy-14" stroke="#757575" opacity="0.3" transform="translate(7.823205, 19.962511) rotate(-360.000000) translate(-7.823205, -19.962511) "/>
          <path d="M1.41484898 37.8697824L1.41484898 13.5591868" id="Line-Copy-15" stroke="#757575" opacity="0.3" transform="translate(1.414849, 25.981634) rotate(-360.000000) translate(-1.414849, -25.981634) "/>
          <rect id="Rectangle-174-Copy-7" stroke="#2C53F0" stroke-width="2" fill="#2C53F0" transform="translate(1.414849, 11.934906) rotate(-360.000000) translate(-1.414849, -11.934906) " x="0.612703398" y="11.1355614" width="1.60429117" height="1.59868933"/>
          <rect id="Rectangle-174-Copy-8" stroke="#2C53F0" stroke-width="2" fill="#2C53F0" transform="translate(7.823205, 1.501759) rotate(-360.000000) translate(-7.823205, -1.501759) " x="7.02105977" y="0.702413989" width="1.60429117" height="1.59868933"/>
        </g>
        <path d="M45.3573989 80.3612634L45.3573989 53.6909251" id="Line-Copy-14" stroke="#757575" stroke-linecap="square" opacity="0.3" transform="translate(45.142307, 67.291754) rotate(-360.000000) translate(-45.142307, -67.291754) "/>
        <rect id="Rectangle-147-Copy-5" fill="url(#linearGradient-3)" opacity="0.1" transform="translate(79.758902, 123.153746) rotate(-270.000000) translate(-79.758902, -123.153746) " x="30.8280215" y="73.0328621" width="97.8617615" height="100.241767"/>
        <rect id="Rectangle-147-Copy-5" stroke="#2C53F0" stroke-width="2" stroke-linecap="square" transform="translate(74.562210, 129.975419) rotate(-270.000000) translate(-74.562210, -129.975419) " x="26.0324025" y="80.2653623" width="97.0596159" height="99.4201131"/>
        <use id="Rectangle-147-Copy-4" stroke="#2C53F0" mask="url(#mask-5)" stroke-width="4" stroke-dasharray="2,2,2,2" fill="#FFFFFF" transform="translate(51.726211, 140.049743) rotate(-270.000000) translate(-51.726211, -140.049743) " xlink:href="#path-4"/>
        <rect id="Rectangle-147-Copy-5" stroke="#2C53F0" stroke-width="2" stroke-linecap="square" transform="translate(51.722343, 140.007291) rotate(-270.000000) translate(-51.722343, -140.007291) " x="2.79146243" y="89.8864079" width="97.8617615" height="100.241767"/>
        <rect id="Rectangle-147-Copy-11" fill="url(#linearGradient-3)" opacity="0.1" transform="translate(54.125477, 135.191993) rotate(-270.000000) translate(-54.125477, -135.191993) " x="5.19459607" y="85.0711091" width="97.8617615" height="100.241767"/>
        <g id="Group-11" transform="translate(124.000000, 108.000000)" stroke-linecap="square">
          <path d="M40.8880132 45.5984505L40.8880132-34.1284606" id="Line-Copy-15" stroke="#757575" opacity="0.3" transform="translate(40.585868, 5.787855) rotate(-270.000000) translate(-40.585868, -5.787855) "/>
          <rect id="Rectangle-147-Copy-12" stroke="#2C53F0" stroke-width="2" fill="#FFFFFF" transform="translate(82.878721, 5.333824) rotate(-270.000000) translate(-82.878721, -5.333824) " x="78.3009402" y="0.455103487" width="9.15556168" height="9.75744202"/>
        </g>
        <polygon id="Rectangle-174-Copy-6" stroke="#10E3A5" stroke-width="2" stroke-linecap="square" fill="#FFFFFF" transform="translate(51.408943, 140.007291) rotate(-270.000000) translate(-51.408943, -140.007291) " points="29.7510123 118.424985 73.066874 118.424985 73.066874 161.589597 40.757666 161.589597 29.7510123 161.589597"/>
        <path d="M64.168889 121.560213L64.168889 138.390625" id="Line" stroke="#10E3A5" stroke-width="2" stroke-linecap="square" fill="#FFFFFF" transform="translate(64.168889, 129.975419) rotate(-270.000000) translate(-64.168889, -129.975419) "/>
        <path d="M64.168889 129.585711L64.168889 146.416123" id="Line-Copy-11" stroke="#10E3A5" stroke-width="2" stroke-linecap="square" fill="#FFFFFF" transform="translate(64.168889, 138.000917) rotate(-270.000000) translate(-64.168889, -138.000917) "/>
        <path d="M38.5354635 142.426508L38.5354635 159.25692" id="Line-Copy-12" stroke="#10E3A5" stroke-width="2" stroke-linecap="square" fill="#FFFFFF" transform="translate(38.535463, 150.841714) rotate(-270.000000) translate(-38.535463, -150.841714) "/>
        <path d="M58.164358 126.76522L52.9504117 126.76522" id="Line-Copy-3" stroke="#10E3A5" stroke-width="2" stroke-linecap="square" fill="#FFFFFF" transform="translate(55.757921, 126.765220) rotate(-270.000000) translate(-55.757921, -126.765220) "/>
        <path d="M69.7925757 122.752471L63.3628897 122.752471" id="Line-Copy-26" stroke="#10E3A5" stroke-width="2" stroke-linecap="square" fill="#FFFFFF" transform="translate(66.972545, 122.752471) rotate(-270.000000) translate(-66.972545, -122.752471) "/>
        <path d="M64.1852639 126.76522L57.7555779 126.76522" id="Line-Copy-27" stroke="#10E3A5" stroke-width="2" stroke-linecap="square" fill="#FFFFFF" transform="translate(61.365233, 126.765220) rotate(-270.000000) translate(-61.365233, -126.765220) "/>
        <path d="M64.1955104 140.408566L60.9619582 140.408566" id="Line-Copy-28" stroke="#10E3A5" stroke-width="2" stroke-linecap="square" fill="#FFFFFF" transform="translate(62.967322, 140.408566) rotate(-270.000000) translate(-62.967322, -140.408566) "/>
        <path d="M60.1913887 135.593267L56.1358103 135.593267" id="Line-Copy-29" stroke="#10E3A5" stroke-width="2" stroke-linecap="square" fill="#FFFFFF" transform="translate(58.161055, 135.593267) rotate(-270.000000) translate(-58.161055, -135.593267) "/>
        <path d="M48.9767651 138.000917L44.9211867 138.000917" id="Line-Copy-30" stroke="#10E3A5" stroke-width="2" stroke-linecap="square" fill="#FFFFFF" transform="translate(46.946431, 138.000917) rotate(-270.000000) translate(-46.946431, -138.000917) "/>
        <path d="M69.0017777 148.434064L66.5375136 148.434064" id="Line-Copy-32" stroke="#10E3A5" stroke-width="2" stroke-linecap="square" fill="#FFFFFF" transform="translate(67.773589, 148.434064) rotate(-270.000000) translate(-67.773589, -148.434064) "/>
        <path d="M54.1635394 124.758845L42.9335012 124.758845" id="Line-Copy-6" stroke="#10E3A5" stroke-width="2" stroke-linecap="square" fill="#FFFFFF" transform="translate(48.548520, 124.758845) rotate(-270.000000) translate(-48.548520, -124.758845) "/>
        <path d="M56.5932607 156.860837L54.15363 156.860837" id="Line-Copy-10" stroke="#10E3A5" stroke-width="2" stroke-linecap="square" fill="#FFFFFF" transform="translate(55.757921, 156.860837) rotate(-270.000000) translate(-55.757921, -156.860837) "/>
        <path d="M41.7467984 129.172869L31.3189058 129.172869" id="Line-Copy-9" stroke="#10E3A5" stroke-width="2" stroke-linecap="square" fill="#FFFFFF" transform="translate(36.532852, 129.172869) rotate(-270.000000) translate(-36.532852, -129.172869) "/>
        <path d="M47.3541102 123.55502L36.9262176 123.55502" id="Line-Copy-25" stroke="#10E3A5" stroke-width="2" stroke-linecap="square" fill="#FFFFFF" transform="translate(42.140164, 123.555020) rotate(-270.000000) translate(-42.140164, -123.555020) "/>
        <path d="M42.1623696 153.650638L38.1316381 153.650638" id="Line-Copy-19" stroke="#10E3A5" stroke-width="2" stroke-linecap="square" fill="#FFFFFF" transform="translate(40.538075, 153.650638) rotate(-270.000000) translate(-40.538075, -153.650638) "/>
        <path d="M50.1661456 155.255738L42.9357033 155.255738" id="Line-Copy-21" stroke="#10E3A5" stroke-width="2" stroke-linecap="square" fill="#FFFFFF" transform="translate(46.946431, 155.255738) rotate(-270.000000) translate(-46.946431, -155.255738) "/>
        <path d="M36.9528094 143.618765L32.1232535 143.618765" id="Line-Copy-31" stroke="#10E3A5" stroke-width="2" stroke-linecap="square" fill="#FFFFFF" transform="translate(34.930763, 143.618765) rotate(-270.000000) translate(-34.930763, -143.618765) "/>
        <path d="M64.168889 146.439257L64.168889 163.269669" id="Line-Copy-2" stroke="#10E3A5" stroke-width="2" stroke-linecap="square" fill="#FFFFFF" transform="translate(64.168889, 154.854463) rotate(-270.000000) translate(-64.168889, -154.854463) "/>
        <path d="M57.7605326 129.594523L57.7605326 159.648831" id="Line-Copy" stroke="#10E3A5" stroke-width="2" stroke-linecap="square" fill="#FFFFFF" transform="translate(57.760533, 144.421315) rotate(-270.000000) translate(-57.760533, -144.421315) "/>
        <path d="M62.1662776 139.620337L62.1662776 160.061195" id="Line-Copy-23" stroke="#10E3A5" stroke-width="2" stroke-linecap="square" fill="#FFFFFF" transform="translate(62.166278, 150.039164) rotate(-270.000000) translate(-62.166278, -150.039164) "/>
        <path d="M36.1323298 135.592174L36.1323298 146.018704" id="Line-Copy-22" stroke="#10E3A5" stroke-width="2" stroke-linecap="square" fill="#FFFFFF" transform="translate(36.132330, 140.408566) rotate(-270.000000) translate(-36.132330, -140.408566) "/>
        <path d="M40.5380748 126.376613L40.5380748 144.809922" id="Line-Copy-4" stroke="#10E3A5" stroke-width="2" stroke-linecap="square" fill="#FFFFFF" transform="translate(40.538075, 135.593267) rotate(-270.000000) translate(-40.538075, -135.593267) "/>
        <path d="M257.801564 158.744918L257.801564 122.05405" id="Line-Copy-13" stroke="#10E3A5" stroke-width="2" stroke-linecap="square" transform="translate(257.801564, 140.399484) scale(1, -1) rotate(-810.000000) translate(-257.801564, -140.399484) "/>
        <path d="M217.801564 156.744918L217.801564 120.05405" id="Line-Copy-13" stroke="#10E3A5" stroke-width="2" stroke-linecap="square" transform="translate(217.801564, 138.399484) scale(1, -1) rotate(-810.000000) translate(-217.801564, -138.399484) "/>
        <path d="M257.801564 155.145003L257.801564 118.454135" id="Line-Copy-14" stroke="#10E3A5" stroke-width="2" stroke-linecap="square" transform="translate(257.801564, 136.799569) scale(1, -1) rotate(-810.000000) translate(-257.801564, -136.799569) "/>
        <path d="M284.116351 133.48662L271.995348 133.48662" id="Line-Copy-16" stroke="#10E3A5" stroke-width="2" stroke-linecap="square" transform="translate(277.930173, 132.899270) scale(1, -1) rotate(-630.000000) translate(-277.930173, -132.899270) "/>
        <path d="M277.611291 145.985123C279.250712 145.985123 280.579725 144.656264 280.579725 143.017034 280.579725 141.377804 279.250712 140.048945 277.611291 140.048945 275.97187 140.048945 274.642857 141.377804 274.642857 143.017034 274.642857 144.656264 275.97187 145.985123 277.611291 145.985123Z" id="Oval-139" stroke="#10E3A5" stroke-width="2" stroke-linecap="square" fill="#FFFFFF" transform="translate(277.611291, 143.017034) scale(1, -1) rotate(-540.000000) translate(-277.611291, -143.017034) "/>
        <g id="Group-5" transform="translate(269.795693, 72.360085) rotate(-330.000000) translate(-269.795693, -72.360085) translate(224.295693, 31.860085)">
          <polygon id="Rectangle-174" stroke="#10E3A5" stroke-width="2" stroke-linecap="square" transform="translate(71.577970, 71.378514) scale(1, -1) rotate(-511.000000) translate(-71.577970, -71.378514) " points="63.5200214 65.2264755 79.6359185 65.2264755 79.6359185 77.5305524 67.6151055 77.5305524 63.5200214 77.5305524"/>
          <path d="M80.8673757 63.7266399L67.6973885 63.7266399 67.6973885 76.0307169 80.1882822 76.0307169 80.8673757 76.0307169 80.8673757 63.7266399Z" id="Combined-Shape" fill="url(#linearGradient-3)" opacity="0.1" transform="translate(74.282382, 69.878678) scale(1, -1) rotate(-511.000000) translate(-74.282382, -69.878678) "/>
          <path d="M67.4533129 57.9179454L67.4533129 69.3512109 48.1298359 69.3512109 41.5469814 69.3512109 41.5469814 57.9179454C34.4248489 53.5542644 29.6732461 45.7001156 29.6732461 36.7362994 29.6732461 23.0263745 40.7886283 11.9122844 54.5001471 11.9122844 68.2116659 11.9122844 79.3270482 23.0263745 79.3270482 36.7362994 79.3270482 45.7001156 74.5754453 53.5542644 67.4533238 57.9179387Z" id="Combined-Shape" stroke="#10E3A5" stroke-width="2" stroke-linecap="square" transform="translate(54.500147, 40.631748) scale(1, -1) rotate(-511.000000) translate(-54.500147, -40.631748) "/>
          <path d="M78.9104026 9.33110243C77.0902166 8.90617469 75.1930494 8.68146639 73.2433926 8.68146639 59.5318738 8.68146639 48.4164916 19.7955565 48.4164916 33.5054814 48.4164916 42.4692975 53.1680944 50.3234464 60.2902159 54.6871207L60.2902269 66.1203929 66.8730814 66.1203929 74.9156742 66.1203929 71.6242469 66.1203929 71.6242469 54.6871274C64.5021144 50.3234464 59.7505116 42.4692975 59.7505116 33.5054814 59.7505116 21.7449866 67.9296101 11.8946006 78.9104026 9.33110243Z" id="Combined-Shape" fill="url(#linearGradient-3)" opacity="0.1" transform="translate(63.663447, 37.400930) scale(1, -1) rotate(-511.000000) translate(-63.663447, -37.400930) "/>
          <g id="Group-16" transform="translate(60.868731, 52.912943) scale(1, -1) rotate(-511.000000) translate(-60.868731, -52.912943) translate(58.868731, 37.912943)" stroke="#10E3A5" stroke-width="2">
            <rect id="Rectangle-174-Copy-4" stroke-linecap="square" transform="translate(2.697160, 1.051680) rotate(-90.000000) translate(-2.697160, -1.051680) " x="2.15744438" y="0.51344367" width="1.07943048" height="1.07647218"/>
            <path d="M3.23829144 29.4008398L3.23829144 10.7654247" id="Path-388"/>
            <path d="M3.53792665 10.9699393C3.53792665 10.9699393 0.0149763955 9.21478203 0.0000477419401 5.09190584 -0.0148809117 0.969029644 3.74118973 0.512027259 3.74118973 0.512027259" id="Path-389" transform="translate(1.870597, 5.740983) scale(1, -1) translate(-1.870597, -5.740983) "/>
          </g>
          <g id="Group-2" transform="translate(60.868731, 52.912943) scale(1, -1) rotate(-511.000000) translate(-60.868731, -52.912943) translate(58.868731, 37.912943)" stroke="#10E3A5" stroke-width="2">
            <rect id="Rectangle-174-Copy-4" stroke-linecap="square" transform="translate(0.538299, 1.051680) rotate(-90.000000) translate(-0.538299, -1.051680) " x="-0.00141657544" y="0.51344367" width="1.07943048" height="1.07647218"/>
            <path d="M0.53971524 29.4008398L0.53971524 10.7654247" id="Path-388" transform="translate(0.539715, 20.083132) scale(-1, 1) translate(-0.539715, -20.083132) "/>
            <path d="M3.53792665 10.9829707C3.53792665 10.9829707 0.0149763956 9.22781344 0.000047741942 5.10493725 -0.0148809117 0.982061057 3.4762485 0.512027259 3.4762485 0.512027259" id="Path-389" transform="translate(1.768963, 5.747499) scale(-1, -1) translate(-1.768963, -5.747499) "/>
          </g>
          <path d="M12.525865 28.3181767L20.6788256 17.8840761" id="Path-401" stroke="#10E3A5" stroke-width="2" stroke-linecap="square" transform="translate(16.602345, 23.101126) scale(1, -1) rotate(-511.000000) translate(-16.602345, -23.101126) "/>
          <path d="M17.067249 20.2375721L24.2796876 9.13268168" id="Path-401-Copy-2" stroke="#10E3A5" stroke-width="2" stroke-linecap="square" transform="translate(20.673468, 14.685127) scale(1, -1) rotate(-511.000000) translate(-20.673468, -14.685127) "/>
          <path d="M2.77771979 12.4450149L9.9901584 1.34012444" id="Path-401-Copy-3" stroke="#10E3A5" stroke-width="2" stroke-linecap="square" transform="translate(6.383939, 6.892570) scale(1, -1) rotate(-511.000000) translate(-6.383939, -6.892570) "/>
          <path d="M11.7124479 36.0909524L18.728746 28.8867164" id="Path-401-Copy" stroke="#10E3A5" stroke-width="2" stroke-linecap="square" transform="translate(15.220597, 32.664284) scale(1, -1) rotate(-511.000000) translate(-15.220597, -32.664284) "/>
          <ellipse id="Oval-139-Copy-2" stroke="#10E3A5" stroke-width="2" stroke-linecap="square" fill="#FFFFFF" transform="translate(59.823305, 50.151378) scale(1, -1) rotate(-540.000000) translate(-59.823305, -50.151378) " cx="59.8233054" cy="50.1513782" rx="4.58757954" ry="4.58704625"/>
        </g>
        <ellipse id="Oval-139-Copy" stroke="#10E3A5" stroke-width="2" stroke-linecap="square" fill="#FFFFFF" transform="translate(277.341433, 126.457278) scale(1, -1) rotate(-540.000000) translate(-277.341433, -126.457278) " cx="277.341433" cy="126.457278" rx="2.6985762" ry="2.6982625"/>
        <ellipse id="Oval-139-Copy-3" stroke="#10E3A5" stroke-width="2" stroke-linecap="square" fill="#FFFFFF" transform="translate(236.749120, 138.599903) scale(1, -1) rotate(-540.000000) translate(-236.749120, -138.599903) " cx="236.74912" cy="138.599903" rx="4.31772192" ry="4.31722"/>
        <ellipse id="Oval-139-Copy-3" stroke="#10E3A5" stroke-width="2" stroke-linecap="square" fill="#FFFFFF" transform="translate(198.533421, 138.466873) scale(1, -1) rotate(-540.000000) translate(-198.533421, -138.466873) " cx="198.533421" cy="138.466873" rx="2.533421" ry="2.5331265"/>
      </g>
    </g>
  </g>
</svg>
