<svg width="30" height="26" viewBox="0 0 30 26" version="1.1" xmlns="http://www.w3.org/2000/svg"><title>78B8B76A-D4C7-4A4A-A6C7-8A22BFC3ED3D</title><desc>Created with sketchtool.</desc><g stroke="none" stroke-width="1" fill="none" fill-rule="evenodd"><g transform="translate(-299.000000, -591.000000)" fill="#FFFFFF"><path d="M325.44 593.72L311.55 607.21 300.57 603.88 325.44 593.72ZM322.95 614.94L312.93 607.97 326.98 594.32 322.95 614.94ZM312.83 614.35L312.58 609.56 315.4 611.51 312.83 614.35ZM299 603.98C299.04 604.6 299.45 605.12 300.04 605.3L311.03 608.63 311.44 616.24C311.45 616.54 311.66 616.8 311.94 616.9 312.02 616.93 312.11 616.95 312.19 616.95 312.4 616.95 312.61 616.86 312.75 616.69L316.64 612.37 322.14 616.2C322.39 616.37 322.68 616.47 322.98 616.47 323.67 616.47 324.27 615.98 324.41 615.29L328.99 591.9C329.04 591.63 328.94 591.34 328.73 591.17 328.51 590.99 328.23 590.95 327.97 591.06L299.88 602.53C299.31 602.79 298.97 603.36 299 603.98L299 603.98Z"/></g></g></svg>