<?xml version="1.0" encoding="UTF-8" standalone="no"?>
<svg width="148px" height="48px" viewBox="0 0 148 48" version="1.1" xmlns="http://www.w3.org/2000/svg" xmlns:xlink="http://www.w3.org/1999/xlink">
    <!-- Generator: sketchtool 3.8.3 (29802) - http://www.bohemiancoding.com/sketch -->
    <title>C9030709-DD6E-481E-A190-BD9CC8B2FFF3</title>
    <desc>Created with sketchtool.</desc>
    <defs>
        <polygon id="path-1" points="0 46.8865204 147.826035 46.8865204 147.826035 0.0314482759 0 0.0314482759"></polygon>
    </defs>
    <g id="Homepage" stroke="none" stroke-width="1" fill="none" fill-rule="evenodd" opacity="0.6">
        <g transform="translate(-312.000000, -3601.000000)" id="Group-7">
            <g transform="translate(312.000000, 3572.000000)">
                <g id="Page-1" opacity="0.8" transform="translate(0.000000, 29.000000)">
                    <polygon id="Fill-1" fill="#333333" points="56.6870869 14.2422666 60.8691688 14.2422666 60.8691688 22.0571631 68.3023462 14.2422666 73.5236016 14.2422666 66.0907127 21.6869312 74.2428296 33.0912196 68.9950324 33.0912196 63.2668842 24.6179105 60.8691688 27.019987 60.8691688 33.0912196 56.6870869 33.0912196"></polygon>
                    <path d="M75.6305965,33.0913053 L79.4139727,33.0913053 L79.4139727,19.4436113 L75.6305965,19.4436113 L75.6305965,33.0913053 Z M75.630885,17.3308589 L79.4142612,17.3308589 L79.4142612,14.2423524 L75.630885,14.2423524 L75.630885,17.3308589 Z" id="Fill-2" fill="#333333"></path>
                    <g id="Group-15" transform="translate(0.000000, 0.254445)">
                        <path d="M91.1940226,23.9931476 C90.9542799,22.4624742 89.9684788,21.6439614 88.3964476,21.6439614 C85.9724788,21.6439614 85.1739135,24.0731977 85.1739135,26.0787401 C85.1739135,28.0328216 85.9465138,30.3820078 88.3168218,30.3820078 C90.0752234,30.3820078 91.087278,29.2733131 91.3270207,27.6096993 L94.9762448,27.6096993 C94.497048,31.226251 91.9663345,33.2060629 88.3430752,33.2060629 C84.1881123,33.2060629 81.3905372,30.3019576 81.3905372,26.2105369 C81.3905372,21.9604454 83.9483696,18.8187626 88.4235665,18.8187626 C91.6732195,18.8187626 94.6571649,20.5083927 94.8969076,23.9931476 L91.1940226,23.9931476 L91.1940226,23.9931476 Z" id="Fill-3" fill="#333333"></path>
                        <polygon id="Fill-5" fill="#333333" points="96.8754916 13.9878214 100.659156 13.9878214 100.659156 24.0990139 105.42718 19.1890804 109.902377 19.1890804 104.70824 24.2047945 110.488607 32.8367744 105.906665 32.8367744 102.124154 26.7383819 100.659156 28.1375443 100.659156 32.8367744 96.8754916 32.8367744"></polygon>
                        <mask id="mask-2" fill="white">
                            <use xlink:href="#path-1"></use>
                        </mask>
                        <g id="Clip-8"></g>
                        <path d="M121.333747,32.8368602 L125.117123,32.8368602 L125.117123,13.9879072 L121.333747,13.9879072 L121.333747,32.8368602 Z M112.650214,21.6970232 L110.970573,21.6970232 L110.970573,19.1891661 L112.650214,19.1891661 L112.650214,18.1333618 C112.650214,15.7301417 114.167719,13.9879072 117.258121,13.9879072 C117.923688,13.9879072 118.616663,14.0676715 119.256265,14.0936878 L119.256265,16.8917266 C118.803033,16.8388364 118.349801,16.813106 117.870316,16.813106 C116.858261,16.813106 116.432437,17.2350846 116.432437,18.3709392 L116.432437,19.1891661 L119.042776,19.1891661 L119.042776,21.6970232 L116.432437,21.6970232 L116.432437,32.8368602 L112.650214,32.8368602 L112.650214,21.6970232 Z" id="Fill-7" fill="#333333" mask="url(#mask-2)"></path>
                        <path d="M127.627353,32.8368602 L131.410729,32.8368602 L131.410729,19.1891661 L127.627353,19.1891661 L127.627353,32.8368602 Z M127.627353,17.0764138 L131.410729,17.0764138 L131.410729,13.9879072 L127.627353,13.9879072 L127.627353,17.0764138 Z" id="Fill-9" fill="#333333" mask="url(#mask-2)"></path>
                        <path d="M144.042543,26.0529811 C144.042543,23.8873384 143.164641,21.6439328 140.739518,21.6439328 C138.262177,21.6439328 137.4639,23.8344482 137.4639,26.0529811 C137.4639,28.2703704 138.315549,30.3819792 140.766926,30.3819792 C143.243978,30.3819792 144.042543,28.2703704 144.042543,26.0529811 L144.042543,26.0529811 Z M133.813234,19.1892519 L137.410239,19.1892519 L137.410239,20.9314864 L137.4639,20.9314864 C138.368922,19.4794337 139.860462,18.818734 141.565202,18.818734 C145.881436,18.818734 147.82592,22.2777585 147.82592,26.1576181 C147.82592,29.8013297 145.800945,33.2060344 141.778692,33.2060344 C140.127323,33.2060344 138.555292,32.493588 137.649982,31.1473159 L137.59661,31.1473159 L137.59661,37.640813 L133.813234,37.640813 L133.813234,19.1892519 Z" id="Fill-10" fill="#333333" mask="url(#mask-2)"></path>
                        <polygon id="Fill-11" fill="#333333" mask="url(#mask-2)" points="14.813271 33.8360577 19.5703314 33.8360577 19.5703314 13.0816251 14.813271 13.0816251"></polygon>
                        <polygon id="Fill-12" fill="#333333" mask="url(#mask-2)" points="28.8741365 13.0817108 21.5416452 23.4590701 28.8741365 33.8361434 29.1346511 33.8361434 33.8917115 33.8361434 34.2912827 33.8361434 26.9587914 23.4590701 34.2912827 13.0817108"></polygon>
                        <path d="M17.2352491,41.3924208 C10.1551945,38.9091506 5.46477739,32.7295644 4.58831735,25.8160898 L7.2953037,25.8160898 L0.964481092,16.856476 C-2.56213099,28.7127619 3.85581832,41.3646892 15.7546721,45.5381613 C26.8454402,49.4280271 38.9101809,44.6230164 44.3726214,34.7085186 L41.4460873,30.5667807 C37.6301107,39.9732459 26.9706487,44.8071318 17.2352491,41.3924208" id="Fill-13" fill="#333333" mask="url(#mask-2)"></path>
                        <path d="M31.5263945,1.37986458 C20.435338,-2.51028715 8.37030877,2.2952953 2.90786823,12.210079 L5.83469084,16.3521028 C9.65009045,6.94506583 20.3101294,2.11089404 30.0458175,5.52560502 C37.1258721,8.00887524 41.8162893,14.1881755 42.6924608,21.1019361 L39.9848975,21.1019361 L46.3162971,30.0624075 C49.8434862,18.2058357 43.4252483,5.55333668 31.5263945,1.37986458" id="Fill-14" fill="#333333" mask="url(#mask-2)"></path>
                    </g>
                </g>
            </g>
        </g>
    </g>
</svg>